<svg width="40" height="40" viewBox="0 0 40 40" fill="none" xmlns="http://www.w3.org/2000/svg">
<path d="M0.5 6C0.5 2.96243 2.96243 0.5 6 0.5H34C37.0376 0.5 39.5 2.96243 39.5 6V34C39.5 37.0376 37.0376 39.5 34 39.5H6C2.96243 39.5 0.5 37.0376 0.5 34V6Z" fill="#FDFDFE"/>
<path d="M0.5 6C0.5 2.96243 2.96243 0.5 6 0.5H34C37.0376 0.5 39.5 2.96243 39.5 6V34C39.5 37.0376 37.0376 39.5 34 39.5H6C2.96243 39.5 0.5 37.0376 0.5 34V6Z" stroke="#F0F0F0"/>
<path d="M20 14.9999C20.9166 14.9999 21.6666 15.7499 21.6666 16.6666C21.6666 17.5833 20.9166 18.3333 20 18.3333C19.0833 18.3333 18.3333 17.5833 18.3333 16.6666C18.3333 15.7499 19.0833 14.9999 20 14.9999ZM20 23.3333C22.25 23.3333 24.8333 24.4083 25 24.9999H15C15.1916 24.3999 17.7583 23.3333 20 23.3333ZM20 13.3333C18.1583 13.3333 16.6666 14.8249 16.6666 16.6666C16.6666 18.5083 18.1583 19.9999 20 19.9999C21.8416 19.9999 23.3333 18.5083 23.3333 16.6666C23.3333 14.8249 21.8416 13.3333 20 13.3333ZM20 21.6666C17.775 21.6666 13.3333 22.7833 13.3333 24.9999V26.6666H26.6666V24.9999C26.6666 22.7833 22.225 21.6666 20 21.6666Z" fill="#8D8D8D"/>
</svg>
