<svg width="40" height="40" viewBox="0 0 40 40" fill="none" xmlns="http://www.w3.org/2000/svg">
<rect width="40" height="40" fill="white" fill-opacity="0.01"/>
<path d="M0 12C0 6.34315 0 3.51472 1.75736 1.75736C3.51472 0 6.34315 0 12 0H28C33.6569 0 36.4853 0 38.2426 1.75736C40 3.51472 40 6.34315 40 12V28C40 33.6569 40 36.4853 38.2426 38.2426C36.4853 40 33.6569 40 28 40H12C6.34315 40 3.51472 40 1.75736 38.2426C0 36.4853 0 33.6569 0 28V12Z" fill="#46A758"/>
<path d="M18.5 24.5H21.5V23H18.5V24.5ZM13.25 15.5V17H26.75V15.5H13.25ZM15.5 20.75H24.5V19.25H15.5V20.75Z" fill="white"/>
</svg>
