<svg width="25" height="30" viewBox="0 0 25 30" fill="none" xmlns="http://www.w3.org/2000/svg">
<rect x="-2.5" y="2.50095" width="25" height="25" rx="12.5" stroke="white" stroke-width="5"/>
<path d="M0 15.001C0 16.2242 0.220039 17.3959 0.621992 18.4792L10 18.914L19.378 18.4792C19.78 17.3959 20 16.2242 20 15.001C20 13.7777 19.78 12.606 19.378 11.5227L10 11.0879L0.621992 11.5227C0.220039 12.606 0 13.7777 0 15.001H0Z" fill="#FFDA44"/>
<path d="M9.99996 5.00095C5.70031 5.00095 2.03488 7.7147 0.621948 11.5227H19.378C17.965 7.7147 14.2996 5.00095 9.99996 5.00095Z" fill="#D80027"/>
<path d="M19.378 18.4792H0.621948C2.03488 22.2872 5.70031 25.0009 9.99996 25.0009C14.2996 25.0009 17.965 22.2872 19.378 18.4792Z" fill="#496E2D"/>
<path d="M9.99996 11.5227L10.8632 14.1797H13.6573L11.397 15.822L12.2603 18.4792L9.99996 16.837L7.73961 18.4792L8.60305 15.822L6.34277 14.1797H9.13668L9.99996 11.5227Z" fill="black"/>
</svg>
