<svg width="117" height="32" viewBox="0 0 117 32" fill="none" xmlns="http://www.w3.org/2000/svg">
<g clip-path="url(#clip0_2040_21688)">
<path d="M1.63544 13.1283C13.6542 13.1283 13.0789 13.1283 13.0789 1.64111" stroke="#3E63DD" stroke-width="3.5" stroke-linecap="round" stroke-linejoin="round"/>
<path d="M29.4374 13.1283C18.2772 13.1283 18.8113 13.1283 18.8113 1.64111" stroke="#3E63DD" stroke-width="3.5" stroke-linecap="round" stroke-linejoin="round"/>
<path d="M1.63544 18.8718C13.6542 18.8718 13.0789 18.8718 13.0789 30.359" stroke="#3E63DD" stroke-width="3.5" stroke-linecap="round" stroke-linejoin="round"/>
<path d="M29.4374 18.8718C18.2772 18.8718 18.8113 18.8718 18.8113 30.359" stroke="#3E63DD" stroke-width="3.5" stroke-linecap="round" stroke-linejoin="round"/>
<path d="M42.488 20.6769C41.6485 20.6769 40.8689 20.5292 40.1494 20.2338C39.4298 19.9275 38.7975 19.5063 38.2523 18.9702C37.7181 18.4232 37.3037 17.7887 37.0094 17.0667C36.7259 16.3446 36.5842 15.5678 36.5842 14.7364C36.5842 13.905 36.7259 13.1282 37.0094 12.4061C37.3037 11.6841 37.7181 11.055 38.2523 10.519C38.7975 9.98292 39.4243 9.56167 40.133 9.25537C40.8526 8.94908 41.6376 8.79589 42.488 8.79589C43.4038 8.79589 44.2107 8.94908 44.9084 9.25537C45.6062 9.55076 46.2222 9.96101 46.7564 10.4861L45.2519 11.9959C44.9356 11.6458 44.5486 11.3723 44.0907 11.1754C43.6328 10.9784 43.0986 10.88 42.488 10.88C41.9538 10.88 41.4632 10.973 41.0161 11.159C40.5801 11.334 40.1984 11.5965 39.8713 11.9467C39.5443 12.2858 39.2935 12.696 39.1191 13.1774C38.9446 13.6478 38.8574 14.1675 38.8574 14.7364C38.8574 15.3163 38.9446 15.8414 39.1191 16.3118C39.2935 16.7822 39.5443 17.1924 39.8713 17.5426C40.1984 17.8817 40.5801 18.1442 41.0161 18.3302C41.4632 18.5163 41.9538 18.6092 42.488 18.6092C43.1313 18.6092 43.6819 18.5108 44.1398 18.3138C44.6086 18.1169 45.0011 17.8379 45.3173 17.4769L46.8218 18.9867C46.2876 19.5227 45.6662 19.9384 44.9575 20.2338C44.2488 20.5292 43.4257 20.6769 42.488 20.6769ZM51.508 20.6769C50.8103 20.6769 50.1888 20.5292 49.6437 20.2338C49.1095 19.9384 48.6897 19.5282 48.3844 19.0031C48.0792 18.4779 47.9265 17.8708 47.9265 17.1815V12.5867H50.0852V17.1323C50.0852 17.4605 50.1398 17.745 50.2488 17.9856C50.3579 18.2154 50.5214 18.3904 50.7394 18.5108C50.9575 18.6311 51.2137 18.6913 51.508 18.6913C51.9551 18.6913 52.304 18.5545 52.5547 18.281C52.8055 18.0075 52.9309 17.6246 52.9309 17.1323V12.5867H55.0732V17.1815C55.0732 17.8817 54.9207 18.4943 54.6153 19.0195C54.3209 19.5446 53.9012 19.9549 53.3561 20.2502C52.8218 20.5347 52.2059 20.6769 51.508 20.6769ZM56.7793 20.5128V12.5867H58.9217V20.5128H56.7793ZM58.9217 16.1313L58.0876 15.5733C58.1858 14.5996 58.4693 13.8338 58.938 13.2759C59.4069 12.707 60.0828 12.4226 60.966 12.4226C61.3476 12.4226 61.691 12.4882 61.9963 12.6195C62.3016 12.7398 62.5796 12.9422 62.8303 13.2267L61.4893 14.7692C61.3694 14.6379 61.2222 14.5395 61.0477 14.4738C60.8842 14.4082 60.6934 14.3754 60.4753 14.3754C60.0174 14.3754 59.6413 14.5231 59.3469 14.8184C59.0635 15.1029 58.9217 15.5405 58.9217 16.1313ZM67.1371 20.6769C66.3085 20.6769 65.5726 20.5019 64.9293 20.1518C64.2861 19.7908 63.7736 19.2985 63.392 18.6749C63.0213 18.0513 62.836 17.3401 62.836 16.5415C62.836 15.7538 63.0159 15.0537 63.3757 14.441C63.7464 13.8174 64.2479 13.3251 64.8802 12.9641C65.5126 12.5922 66.2159 12.4061 66.9899 12.4061C67.7532 12.4061 68.4237 12.5812 69.0015 12.9313C69.5902 13.2704 70.0481 13.7409 70.3752 14.3426C70.7133 14.9333 70.8822 15.6061 70.8822 16.361C70.8822 16.5032 70.8713 16.6509 70.8495 16.8041C70.8386 16.9463 70.8114 17.1104 70.7677 17.2964L64.1279 17.3128V15.7046L69.7701 15.6882L68.9033 16.361C68.8816 15.8906 68.7943 15.4968 68.6417 15.1795C68.5 14.8622 68.2874 14.6215 68.0039 14.4574C67.7313 14.2824 67.3934 14.1949 66.9899 14.1949C66.5647 14.1949 66.194 14.2933 65.8778 14.4902C65.5617 14.6763 65.3164 14.9442 65.1419 15.2943C64.9784 15.6335 64.8966 16.0383 64.8966 16.5087C64.8966 16.9901 64.9838 17.4113 65.1583 17.7723C65.3436 18.1224 65.6053 18.3959 65.9433 18.5928C66.2813 18.7788 66.6738 18.8718 67.1207 18.8718C67.5242 18.8718 67.8894 18.8061 68.2165 18.6749C68.5436 18.5327 68.8271 18.3247 69.0669 18.0513L70.3262 19.3149C69.9446 19.7634 69.4757 20.1026 68.9197 20.3323C68.3746 20.562 67.7804 20.6769 67.1371 20.6769ZM80.9617 20.6769C80.1222 20.6769 79.3427 20.5292 78.6231 20.2338C77.9035 19.9275 77.2711 19.5063 76.726 18.9702C76.1917 18.4232 75.7775 17.7887 75.4831 17.0667C75.1996 16.3446 75.0579 15.5678 75.0579 14.7364C75.0579 13.905 75.1996 13.1282 75.4831 12.4061C75.7775 11.6841 76.1917 11.055 76.726 10.519C77.2711 9.98292 77.898 9.56167 78.6067 9.25537C79.3263 8.94908 80.1113 8.79589 80.9617 8.79589C81.8777 8.79589 82.684 8.94908 83.3823 9.25537C84.0798 9.55076 84.6955 9.96101 85.2303 10.4861L83.7257 11.9959C83.4093 11.6458 83.0225 11.3723 82.5646 11.1754C82.1067 10.9784 81.5722 10.88 80.9617 10.88C80.4274 10.88 79.9368 10.973 79.4899 11.159C79.0537 11.334 78.6722 11.5965 78.3451 11.9467C78.018 12.2858 77.7672 12.696 77.5928 13.1774C77.4183 13.6478 77.3311 14.1675 77.3311 14.7364C77.3311 15.3163 77.4183 15.8414 77.5928 16.3118C77.7672 16.7822 78.018 17.1924 78.3451 17.5426C78.6722 17.8817 79.0537 18.1442 79.4899 18.3302C79.9368 18.5163 80.4274 18.6092 80.9617 18.6092C81.6049 18.6092 82.1557 18.5108 82.6137 18.3138C83.0822 18.1169 83.4747 17.8379 83.7912 17.4769L85.2957 18.9867C84.761 19.5227 84.1395 19.9384 83.4314 20.2338C82.7224 20.5292 81.899 20.6769 80.9617 20.6769ZM86.6131 20.5128V8.64819H88.7555V20.5128H86.6131ZM90.6534 20.5128V12.5867H92.8121V20.5128H90.6534ZM91.7327 11.3067C91.3836 11.3067 91.0949 11.1918 90.866 10.962C90.637 10.7214 90.5225 10.426 90.5225 10.0759C90.5225 9.73677 90.637 9.4468 90.866 9.20614C91.0949 8.96549 91.3836 8.84512 91.7327 8.84512C92.0925 8.84512 92.3812 8.96549 92.5995 9.20614C92.8284 9.4468 92.9429 9.73677 92.9429 10.0759C92.9429 10.426 92.8284 10.7214 92.5995 10.962C92.3812 11.1918 92.0925 11.3067 91.7327 11.3067ZM98.4387 20.6769C97.6317 20.6769 96.9072 20.4964 96.2636 20.1354C95.6201 19.7743 95.1131 19.282 94.7427 18.6585C94.3723 18.0349 94.1867 17.3347 94.1867 16.5579C94.1867 15.7702 94.3723 15.0646 94.7427 14.441C95.1131 13.8174 95.6201 13.3251 96.2636 12.9641C96.9178 12.5922 97.6431 12.4061 98.4387 12.4061C99.0602 12.4061 99.6326 12.521 100.156 12.7508C100.679 12.9805 101.131 13.3087 101.513 13.7354L100.14 15.1302C99.9327 14.9005 99.6816 14.7255 99.3873 14.6051C99.1035 14.4847 98.7879 14.4246 98.4387 14.4246C98.0462 14.4246 97.6922 14.5176 97.3757 14.7036C97.0707 14.8786 96.8254 15.1247 96.6398 15.442C96.4656 15.7483 96.3781 16.1149 96.3781 16.5415C96.3781 16.9573 96.4656 17.3292 96.6398 17.6574C96.8254 17.9747 97.0707 18.2263 97.3757 18.4123C97.6922 18.5873 98.0462 18.6749 98.4387 18.6749C98.7985 18.6749 99.1199 18.6147 99.4036 18.4943C99.698 18.3631 99.949 18.1771 100.156 17.9364L101.546 19.3313C101.143 19.7688 100.679 20.1026 100.156 20.3323C99.6326 20.562 99.0602 20.6769 98.4387 20.6769ZM107.797 20.5128L104.738 16.4267L107.78 12.5867H110.25L106.684 16.919L106.766 15.8687L110.413 20.5128H107.797ZM102.759 20.5128V8.64819H104.902V20.5128H102.759Z" fill="#3E63DD"/>
</g>
<defs>
<clipPath id="clip0_2040_21688">
<rect width="116.114" height="32" fill="white"/>
</clipPath>
</defs>
</svg>
