<svg width="25" height="27" viewBox="0 0 25 27" fill="none" xmlns="http://www.w3.org/2000/svg">
<rect x="-2.5" y="-0.499054" width="25" height="25" rx="12.5" stroke="white" stroke-width="5"/>
<path d="M10 22.0009C15.5228 22.0009 20 17.5238 20 12.0009C20 6.4781 15.5228 2.00095 10 2.00095C4.47715 2.00095 0 6.4781 0 12.0009C0 17.5238 4.47715 22.0009 10 22.0009Z" fill="#F0F0F0"/>
<path d="M0 12.0009C0 16.3006 2.71375 19.966 6.52176 21.379V2.62297C2.71375 4.03586 0 7.70133 0 12.0009Z" fill="#6DA544"/>
<path d="M20 12.0009C20 7.70133 17.2863 4.03586 13.4783 2.62297V21.379C17.2863 19.966 20 16.3006 20 12.0009Z" fill="#6DA544"/>
</svg>
