<svg width="25" height="30" viewBox="0 0 25 30" fill="none" xmlns="http://www.w3.org/2000/svg">
<rect x="-2.5" y="2.50095" width="25" height="25" rx="12.5" stroke="white" stroke-width="5"/>
<path d="M10 25.0009C15.5228 25.0009 20 20.5238 20 15.0009C20 9.4781 15.5228 5.00095 10 5.00095C4.47715 5.00095 0 9.4781 0 15.0009C0 20.5238 4.47715 25.0009 10 25.0009Z" fill="#F0F0F0"/>
<path d="M2.92893 22.072C-0.976309 18.1668 -0.976309 11.8351 2.92893 7.92984C2.92865 7.93027 8.69568 15.0009 8.69568 15.0009L2.92893 22.072Z" fill="black"/>
<path d="M8.6956 15.001L1.32623 10.021C1.09775 10.4181 0.89627 10.8327 0.723145 11.2617L4.45396 15.001L0.723262 18.7404C0.89623 19.1692 1.09752 19.5835 1.32584 19.9803L8.6956 15.001Z" fill="#FFDA44"/>
<path d="M19.9154 13.6966H8.69542L2.92886 7.93002C2.30745 8.55143 1.76757 9.2542 1.32632 10.021L6.29659 15.001L1.32593 19.9803C1.76718 20.7473 2.30729 21.4503 2.92886 22.0719L8.69542 16.3053H19.9154C19.971 15.8783 20 15.443 20 15.001C20 14.5589 19.971 14.1236 19.9154 13.6966Z" fill="#6DA544"/>
<path d="M3.91162 22.9336C5.59791 24.2298 7.70873 25.0009 9.99998 25.0009C14.6203 25.0009 18.508 21.8673 19.6555 17.6096H9.23564L3.91162 22.9336Z" fill="#0052B4"/>
<path d="M19.6555 12.3922C18.508 8.13458 14.6203 5.00095 9.99998 5.00095C7.70873 5.00095 5.59791 5.77208 3.91162 7.06825L9.23561 12.3922H19.6555Z" fill="#D80027"/>
</svg>
