<svg width="40" height="40" viewBox="0 0 40 40" fill="none" xmlns="http://www.w3.org/2000/svg">
<path d="M0.5 6C0.5 2.96243 2.96243 0.5 6 0.5H34C37.0376 0.5 39.5 2.96243 39.5 6V34C39.5 37.0376 37.0376 39.5 34 39.5H6C2.96243 39.5 0.5 37.0376 0.5 34V6Z" fill="#FDFDFE"/>
<path d="M0.5 6C0.5 2.96243 2.96243 0.5 6 0.5H34C37.0376 0.5 39.5 2.96243 39.5 6V34C39.5 37.0376 37.0376 39.5 34 39.5H6C2.96243 39.5 0.5 37.0376 0.5 34V6Z" stroke="#F0F0F0"/>
<path d="M20 10.8333L12.5 14.1666V19.1666C12.5 23.7916 15.7 28.1166 20 29.1666C24.3 28.1166 27.5 23.7916 27.5 19.1666V14.1666L20 10.8333ZM20 19.9916H25.8333C25.3917 23.4249 23.1 26.4833 20 27.4416V19.9999H14.1667V15.2499L20 12.6583V19.9916Z" fill="#BBBBBB"/>
</svg>
