<svg width="40" height="40" viewBox="0 0 40 40" fill="none" xmlns="http://www.w3.org/2000/svg">
<path d="M0.5 6C0.5 2.96243 2.96243 0.5 6 0.5H34C37.0376 0.5 39.5 2.96243 39.5 6V34C39.5 37.0376 37.0376 39.5 34 39.5H6C2.96243 39.5 0.5 37.0376 0.5 34V6Z" fill="#FDFDFE"/>
<path d="M0.5 6C0.5 2.96243 2.96243 0.5 6 0.5H34C37.0376 0.5 39.5 2.96243 39.5 6V34C39.5 37.0376 37.0376 39.5 34 39.5H6C2.96243 39.5 0.5 37.0376 0.5 34V6Z" stroke="#F0F0F0"/>
<path d="M15.0003 22.4997C14.3087 22.4997 13.6837 22.783 13.2337 23.233C12.2503 24.2163 11.667 28.333 11.667 28.333C11.667 28.333 15.7837 27.7497 16.767 26.7663C17.217 26.3163 17.5003 25.6913 17.5003 24.9997C17.5003 23.6163 16.3837 22.4997 15.0003 22.4997ZM15.592 25.5913C15.3587 25.8247 13.7837 26.2247 13.7837 26.2247C13.7837 26.2247 14.1753 24.658 14.417 24.4163C14.5587 24.258 14.767 24.1663 15.0003 24.1663C15.4587 24.1663 15.8337 24.5413 15.8337 24.9997C15.8337 25.233 15.742 25.4413 15.592 25.5913ZM24.517 21.3747C29.817 16.0747 28.0503 11.9497 28.0503 11.9497C28.0503 11.9497 23.9253 10.183 18.6253 15.483L16.5503 15.0663C16.0087 14.958 15.442 15.133 15.042 15.5247L11.667 18.908L15.8337 20.6913L19.3087 24.1663L21.092 28.333L24.467 24.958C24.8587 24.5663 25.0337 23.9997 24.9253 23.4497L24.517 21.3747ZM16.1753 19.0247L14.5837 18.3413L16.2253 16.6997L17.4253 16.9413C16.9503 17.633 16.5253 18.358 16.1753 19.0247ZM21.6587 25.4163L20.9753 23.8247C21.642 23.4747 22.367 23.0497 23.0503 22.5747L23.292 23.7747L21.6587 25.4163ZM23.3337 20.1997C22.2337 21.2997 20.517 22.1997 19.967 22.4747L17.5253 20.033C17.792 19.4913 18.692 17.7747 19.8003 16.6663C23.7003 12.7663 26.6587 13.3413 26.6587 13.3413C26.6587 13.3413 27.2337 16.2997 23.3337 20.1997ZM22.5003 19.1663C23.417 19.1663 24.167 18.4163 24.167 17.4997C24.167 16.583 23.417 15.833 22.5003 15.833C21.5837 15.833 20.8337 16.583 20.8337 17.4997C20.8337 18.4163 21.5837 19.1663 22.5003 19.1663Z" fill="#BBBBBB"/>
</svg>
