<svg width="70" height="70" viewBox="0 0 70 70" fill="none" xmlns="http://www.w3.org/2000/svg">
<rect width="70" height="70" rx="35" fill="black" fill-opacity="0.0235294"/>
<rect x="12.0015" y="17.6543" width="41.673" height="32.639" rx="6.86598" fill="#E8E8E8" stroke="#8D8D8D" stroke-miterlimit="10"/>
<rect x="16.2214" y="13.7158" width="41.673" height="32.639" rx="6.86598" fill="white" stroke="#8D8D8D" stroke-miterlimit="10"/>
<ellipse cx="25.7057" cy="22.7773" rx="5.12298" ry="5.12298" fill="white" stroke="#8D8D8D" stroke-miterlimit="10"/>
<path fill-rule="evenodd" clip-rule="evenodd" d="M22.4153 26.7037C22.5592 25.1434 23.7879 23.8974 25.3402 23.7267C24.5131 23.5578 23.8909 22.8261 23.8909 21.9491C23.8909 20.9471 24.7032 20.1348 25.7052 20.1348C26.7073 20.1348 27.5196 20.9471 27.5196 21.9491C27.5196 22.8261 26.8974 23.5577 26.0704 23.7267C27.6232 23.8973 28.8522 25.1439 28.9957 26.7047C28.1057 27.4509 26.9584 27.9003 25.7061 27.9003C24.4532 27.9003 23.3054 27.4505 22.4153 26.7037Z" fill="#868C98"/>
<path d="M25.3402 23.7267L25.3949 24.2237C25.6396 24.1968 25.8284 23.9957 25.8397 23.7497C25.851 23.5037 25.6815 23.2861 25.4403 23.2368L25.3402 23.7267ZM22.4153 26.7037L21.9174 26.6578C21.9023 26.8211 21.9683 26.9813 22.0939 27.0867L22.4153 26.7037ZM26.0704 23.7267L25.9703 23.2368C25.729 23.2861 25.5596 23.5037 25.5709 23.7497C25.5823 23.9957 25.771 24.1968 26.0158 24.2237L26.0704 23.7267ZM28.9957 26.7047L29.3169 27.0879C29.4426 26.9825 29.5086 26.8222 29.4936 26.659L28.9957 26.7047ZM25.2856 23.2297C23.4975 23.4263 22.0831 24.8605 21.9174 26.6578L22.9132 26.7496C23.0352 25.4263 24.0782 24.3685 25.3949 24.2237L25.2856 23.2297ZM23.3909 21.9491C23.3909 23.0684 24.185 24.0011 25.2402 24.2166L25.4403 23.2368C24.8413 23.1145 24.3909 22.5838 24.3909 21.9491H23.3909ZM25.7052 19.6348C24.4271 19.6348 23.3909 20.6709 23.3909 21.9491H24.3909C24.3909 21.2232 24.9794 20.6348 25.7052 20.6348V19.6348ZM28.0196 21.9491C28.0196 20.6709 26.9834 19.6348 25.7052 19.6348V20.6348C26.4311 20.6348 27.0196 21.2232 27.0196 21.9491H28.0196ZM26.1705 24.2166C27.2256 24.001 28.0196 23.0683 28.0196 21.9491H27.0196C27.0196 22.5838 26.5692 23.1144 25.9703 23.2368L26.1705 24.2166ZM29.4936 26.659C29.3283 24.8611 27.9136 23.4262 26.125 23.2297L26.0158 24.2237C27.3328 24.3684 28.3761 25.4267 28.4978 26.7505L29.4936 26.659ZM28.6744 26.3216C27.8711 26.9951 26.8366 27.4003 25.7061 27.4003V28.4003C27.0802 28.4003 28.3403 27.9067 29.3169 27.0879L28.6744 26.3216ZM25.7061 27.4003C24.5751 27.4003 23.5401 26.9948 22.7367 26.3207L22.0939 27.0867C23.0707 27.9063 24.3314 28.4003 25.7061 28.4003V27.4003Z" fill="#8D8D8D"/>
<rect x="21.157" y="39.7295" width="32.3763" height="3.0659" rx="1.53295" fill="#868C98"/>
<path d="M28.9506 40.6513V42.4312H24.3103V40.6513C24.3103 40.0115 24.5688 39.4309 24.9883 39.0114C25.4079 38.5918 25.9927 38.3291 26.6326 38.3291C27.9123 38.3291 28.9506 39.3716 28.9506 40.6513Z" fill="#CECECE" stroke="#8D8D8D" stroke-miterlimit="10"/>
<path d="M54.9529 58.3096V59.4749C54.9529 60.2462 54.6393 60.9412 54.1392 61.4455C53.6349 61.9497 52.9357 62.2591 52.1687 62.2591H31.7346C33.2771 62.2591 34.523 61.0132 34.523 59.4749V58.3096H54.9529Z" fill="#CDD0D5" stroke="#8D8D8D" stroke-miterlimit="10"/>
<path d="M49.3802 40.6513V58.3098H34.5229V59.4751C34.5229 61.0134 33.277 62.2593 31.7345 62.2593C30.9675 62.2593 30.2683 61.9499 29.764 61.4456C29.2639 60.9413 28.9503 60.2464 28.9503 59.4751V40.6513C28.9503 39.3716 27.9121 38.3291 26.6323 38.3291H47.0622C47.7021 38.3291 48.2826 38.5918 48.7022 39.0114C49.1217 39.4309 49.3802 40.0115 49.3802 40.6513Z" fill="white" stroke="#8D8D8D" stroke-miterlimit="10"/>
<rect x="34.948" y="21.46" width="18.5852" height="2.63551" rx="1.31776" fill="#E2E4E9" stroke="#8D8D8D" stroke-miterlimit="10"/>
<rect x="40.3723" y="21.46" width="7.73656" height="2.63551" rx="1.31776" fill="white" stroke="#868C98" stroke-miterlimit="10"/>
<path d="M23.967 30.1556C24.075 29.8231 24.5453 29.8231 24.6534 30.1556L25.0134 31.2636C25.0617 31.4122 25.2002 31.5129 25.3565 31.5129H26.5216C26.8711 31.5129 27.0164 31.9602 26.7336 32.1656L25.7911 32.8504C25.6647 32.9423 25.6117 33.1052 25.66 33.2538L26.0201 34.3618C26.1281 34.6943 25.7476 34.9707 25.4648 34.7653L24.5223 34.0805C24.3958 33.9886 24.2246 33.9886 24.0981 34.0805L23.1556 34.7653C22.8728 34.9707 22.4923 34.6943 22.6003 34.3618L22.9603 33.2538C23.0086 33.1052 22.9557 32.9423 22.8293 32.8504L21.8867 32.1656C21.604 31.9602 21.7493 31.5129 22.0988 31.5129H23.2638C23.4202 31.5129 23.5587 31.4122 23.607 31.2636L23.967 30.1556Z" fill="#CDD0D5" stroke="#868C98" stroke-miterlimit="10"/>
<path d="M32.1001 30.1556C32.2081 29.8231 32.6784 29.8231 32.7864 30.1556L33.1464 31.2636C33.1947 31.4122 33.3333 31.5129 33.4896 31.5129H34.6546C35.0042 31.5129 35.1495 31.9602 34.8667 32.1656L33.9242 32.8504C33.7977 32.9423 33.7448 33.1052 33.7931 33.2538L34.1531 34.3618C34.2611 34.6943 33.8806 34.9707 33.5979 34.7653L32.6553 34.0805C32.5289 33.9886 32.3576 33.9886 32.2312 34.0805L31.2886 34.7653C31.0059 34.9707 30.6254 34.6943 30.7334 34.3618L31.0934 33.2538C31.1417 33.1052 31.0888 32.9423 30.9623 32.8504L30.0198 32.1656C29.737 31.9602 29.8823 31.5129 30.2319 31.5129H31.3969C31.5532 31.5129 31.6918 31.4122 31.7401 31.2636L32.1001 30.1556Z" fill="#CDD0D5" stroke="#868C98" stroke-miterlimit="10"/>
<path d="M40.4946 30.1556C40.6026 29.8231 41.0729 29.8231 41.1809 30.1556L41.541 31.2636C41.5893 31.4122 41.7278 31.5129 41.8841 31.5129H43.0491C43.3987 31.5129 43.544 31.9602 43.2612 32.1656L42.3187 32.8504C42.1922 32.9423 42.1393 33.1052 42.1876 33.2538L42.5476 34.3618C42.6557 34.6943 42.2752 34.9707 41.9924 34.7653L41.0499 34.0805C40.9234 33.9886 40.7522 33.9886 40.6257 34.0805L39.6832 34.7653C39.4004 34.9707 39.0199 34.6943 39.1279 34.3618L39.4879 33.2538C39.5362 33.1052 39.4833 32.9423 39.3568 32.8504L38.4143 32.1656C38.1315 31.9602 38.2769 31.5129 38.6264 31.5129H39.7914C39.9478 31.5129 40.0863 31.4122 40.1346 31.2636L40.4946 30.1556Z" fill="white" stroke="#868C98" stroke-miterlimit="10"/>
<path d="M68.1019 49.5293C68.1019 49.5293 65.2641 49.5389 65.2641 52.3671C65.2641 49.5389 62.4263 49.5293 62.4263 49.5293C62.4263 49.5293 65.2641 49.5196 65.2641 46.6914C65.2641 49.5196 68.1019 49.5293 68.1019 49.5293Z" fill="white" stroke="#868C98" stroke-linecap="round" stroke-linejoin="round"/>
<path d="M9.28212 26.8554C9.28212 26.8554 6.44428 26.8651 6.44428 29.6933C6.44428 26.8651 3.60645 26.8554 3.60645 26.8554C3.60645 26.8554 6.44428 26.8458 6.44428 24.0176C6.44428 26.8458 9.28212 26.8554 9.28212 26.8554Z" fill="white" stroke="#8D8D8D" stroke-linecap="round" stroke-linejoin="round"/>
<path d="M30.8286 47.5022H32.7172C33.0044 47.5022 33.2672 47.341 33.3973 47.085L35.4219 43.1011C35.7057 42.5427 36.5042 42.5453 36.7843 43.1056L37.4992 44.5353C37.6284 44.7938 37.8926 44.957 38.1815 44.957H40.0478C40.2416 44.957 40.4282 45.0308 40.5696 45.1633L41.2643 45.8146C41.5857 46.1159 42.0948 46.0831 42.3749 45.743L44.2683 43.4439C44.4133 43.2679 44.6293 43.166 44.8572 43.166H47.2309" stroke="#8D8D8D" stroke-miterlimit="10" stroke-linecap="round"/>
<rect x="30.8286" y="49.2949" width="16.4023" height="1.36771" rx="0.683857" fill="#E8E8E8"/>
<rect x="30.8286" y="52.4551" width="7.09391" height="1.36772" rx="0.683859" fill="#E8E8E8"/>
</svg>
