<svg width="70" height="73" viewBox="0 0 70 73" fill="none" xmlns="http://www.w3.org/2000/svg">
<rect y="1" width="70" height="70" rx="35" fill="black" fill-opacity="0.0235294"/>
<path d="M58.8073 24.2115V55.6607C58.8073 57.3577 57.4325 58.7325 55.7354 58.7325H16.3528C14.658 58.7325 13.2832 57.3577 13.2832 55.6607V24.2115C13.2832 22.5145 14.658 21.1396 16.3528 21.1396H55.7354C57.4325 21.1396 58.8073 22.5145 58.8073 24.2115Z" fill="#E8E8E8" stroke="#8D8D8D" stroke-linecap="round" stroke-linejoin="round"/>
<path d="M21.5861 15.4961C21.7731 16.0313 21.8766 16.6197 21.8766 17.2374C21.8766 19.7081 20.2221 21.711 18.1812 21.711" stroke="#8D8D8D" stroke-linecap="round" stroke-linejoin="round"/>
<path d="M35.2268 15.4961C35.4137 16.0313 35.5172 16.6197 35.5172 17.2374C35.5172 19.7081 33.8627 21.711 31.8218 21.711" stroke="#8D8D8D" stroke-linecap="round" stroke-linejoin="round"/>
<path d="M48.8669 15.4961C49.0539 16.0313 49.1573 16.6197 49.1573 17.2374C49.1573 19.7081 47.5029 21.711 45.4619 21.711" stroke="#8D8D8D" stroke-linecap="round" stroke-linejoin="round"/>
<path d="M54.5456 20.2759V51.7251C54.5456 53.4221 53.1708 54.797 51.4737 54.797H12.091C10.3963 54.797 9.02148 53.4221 9.02148 51.7251V20.2759C9.02148 18.5789 10.3963 17.2041 12.091 17.2041H51.4737C53.1708 17.2041 54.5456 18.5789 54.5456 20.2759Z" fill="#FCFCFC" stroke="#8D8D8D" stroke-linecap="round" stroke-linejoin="round"/>
<path d="M54.5456 20.2759V25.5434H9.02148V20.2759C9.02148 18.5789 10.3963 17.2041 12.091 17.2041H51.4737C53.1708 17.2041 54.5456 18.5789 54.5456 20.2759Z" fill="#CECECE" stroke="#8D8D8D" stroke-linecap="round" stroke-linejoin="round"/>
<path d="M18.1813 21.7108C16.1404 21.7108 14.4858 19.7079 14.4858 17.2372C14.4858 14.7665 16.1403 12.7637 18.1813 12.7637C19.7119 12.7637 21.0253 13.8903 21.5862 15.4959" stroke="#8D8D8D" stroke-linecap="round" stroke-linejoin="round"/>
<path d="M31.8219 21.7108C29.781 21.7108 28.1265 19.7079 28.1265 17.2373C28.1265 14.7666 29.7809 12.7637 31.8219 12.7637C33.3525 12.7637 34.6659 13.8903 35.2269 15.4959" stroke="#8D8D8D" stroke-linecap="round" stroke-linejoin="round"/>
<path d="M45.462 21.7108C43.4211 21.7108 41.7666 19.7079 41.7666 17.2373C41.7666 14.7666 43.4211 12.7637 45.462 12.7637C46.9927 12.7637 48.306 13.8903 48.867 15.4959" stroke="#8D8D8D" stroke-linecap="round" stroke-linejoin="round"/>
<path d="M21.5955 28.1113H14.6905C14.1357 28.1113 13.686 28.561 13.686 29.1158V33.1835C13.686 33.7383 14.1357 34.188 14.6905 34.188H21.5955C22.1503 34.188 22.6 33.7383 22.6 33.1835V29.1158C22.6 28.561 22.1503 28.1113 21.5955 28.1113Z" fill="#E8E8E8"/>
<path d="M48.8763 28.1113H41.9712C41.4165 28.1113 40.9668 28.561 40.9668 29.1158V33.1835C40.9668 33.7383 41.4165 34.188 41.9712 34.188H48.8763C49.431 34.188 49.8807 33.7383 49.8807 33.1835V29.1158C49.8807 28.561 49.431 28.1113 48.8763 28.1113Z" fill="#E8E8E8"/>
<path d="M35.2361 36.8975H28.3311C27.7764 36.8975 27.3267 37.3472 27.3267 37.9019V41.9697C27.3267 42.5244 27.7764 42.9741 28.3311 42.9741H35.2361C35.7909 42.9741 36.2406 42.5244 36.2406 41.9697V37.9019C36.2406 37.3472 35.7909 36.8975 35.2361 36.8975Z" fill="#E8E8E8"/>
<path d="M35.2361 45.6846H28.3311C27.7764 45.6846 27.3267 46.1343 27.3267 46.689V50.7568C27.3267 51.3115 27.7764 51.7612 28.3311 51.7612H35.2361C35.7909 51.7612 36.2406 51.3115 36.2406 50.7568V46.689C36.2406 46.1343 35.7909 45.6846 35.2361 45.6846Z" fill="#E8E8E8"/>
<path d="M48.8763 45.6846H41.9712C41.4165 45.6846 40.9668 46.1343 40.9668 46.689V50.7568C40.9668 51.3115 41.4165 51.7612 41.9712 51.7612H48.8763C49.431 51.7612 49.8807 51.3115 49.8807 50.7568V46.689C49.8807 46.1343 49.431 45.6846 48.8763 45.6846Z" fill="#E8E8E8"/>
<path d="M21.5369 45.6846H14.6319C14.0771 45.6846 13.6274 46.1343 13.6274 46.689V50.7568C13.6274 51.3115 14.0771 51.7612 14.6319 51.7612H21.5369C22.0917 51.7612 22.5414 51.3115 22.5414 50.7568V46.689C22.5414 46.1343 22.0917 45.6846 21.5369 45.6846Z" fill="#E8E8E8"/>
<path d="M16.54 47.1787L19.6283 50.2669" stroke="#8D8D8D" stroke-linecap="round" stroke-linejoin="round"/>
<path d="M19.6283 47.1787L16.54 50.2669" stroke="#8D8D8D" stroke-linecap="round" stroke-linejoin="round"/>
<path d="M21.5369 36.8975H14.6319C14.0771 36.8975 13.6274 37.3472 13.6274 37.9019V41.9697C13.6274 42.5244 14.0771 42.9741 14.6319 42.9741H21.5369C22.0917 42.9741 22.5414 42.5244 22.5414 41.9697V37.9019C22.5414 37.3472 22.0917 36.8975 21.5369 36.8975Z" fill="#E8E8E8"/>
<path d="M16.54 38.3916L19.6283 41.4798" stroke="#8D8D8D" stroke-linecap="round" stroke-linejoin="round"/>
<path d="M19.6283 38.3916L16.54 41.4798" stroke="#8D8D8D" stroke-linecap="round" stroke-linejoin="round"/>
<path d="M35.2361 28.1113H28.3311C27.7764 28.1113 27.3267 28.561 27.3267 29.1158V33.1835C27.3267 33.7383 27.7764 34.188 28.3311 34.188H35.2361C35.7909 34.188 36.2406 33.7383 36.2406 33.1835V29.1158C36.2406 28.561 35.7909 28.1113 35.2361 28.1113Z" fill="#E8E8E8"/>
<path d="M30.2393 29.6055L33.3275 32.6937" stroke="#8D8D8D" stroke-linecap="round" stroke-linejoin="round"/>
<path d="M33.3275 29.6055L30.2393 32.6937" stroke="#8D8D8D" stroke-linecap="round" stroke-linejoin="round"/>
<path d="M48.8768 36.8975H41.9717C41.417 36.8975 40.9673 37.3472 40.9673 37.9019V41.9697C40.9673 42.5244 41.417 42.9741 41.9717 42.9741H48.8768C49.4315 42.9741 49.8812 42.5244 49.8812 41.9697V37.9019C49.8812 37.3472 49.4315 36.8975 48.8768 36.8975Z" fill="#E8E8E8"/>
<path d="M30.2393 38.3916L33.3275 41.4798" stroke="#8D8D8D" stroke-linecap="round" stroke-linejoin="round"/>
<path d="M33.3275 38.3916L30.2393 41.4798" stroke="#8D8D8D" stroke-linecap="round" stroke-linejoin="round"/>
<path d="M55.4877 61.8934C62.1126 61.8934 67.4832 56.5228 67.4832 49.8978C67.4832 43.2729 62.1126 37.9023 55.4877 37.9023C48.8627 37.9023 43.4922 43.2729 43.4922 49.8978C43.4922 56.5228 48.8627 61.8934 55.4877 61.8934Z" fill="#E8E8E8" stroke="#8D8D8D" stroke-linecap="round" stroke-linejoin="round"/>
<path d="M55.4872 59.4099C60.7408 59.4099 64.9997 55.151 64.9997 49.8973C64.9997 44.6437 60.7408 40.3848 55.4872 40.3848C50.2335 40.3848 45.9746 44.6437 45.9746 49.8973C45.9746 55.151 50.2335 59.4099 55.4872 59.4099Z" fill="#FCFCFC" stroke="#8D8D8D" stroke-linecap="round" stroke-linejoin="round"/>
<path d="M50.8962 34.7022C51.1398 35.0146 49.5713 36.6416 47.3936 38.34C45.2176 40.0371 43.2575 41.1621 43.0139 40.8497C41.3168 38.6737 41.7037 35.5317 43.8797 33.8346C46.0574 32.1361 49.1991 32.5262 50.8962 34.7022Z" fill="#CECECE" stroke="#8D8D8D" stroke-linecap="round" stroke-linejoin="round"/>
<path d="M60.0796 34.7022C59.836 35.0146 61.4045 36.6416 63.5822 38.34C65.7582 40.0371 67.7182 41.1621 67.9619 40.8497C69.659 38.6737 69.2721 35.5317 67.0961 33.8346C64.9184 32.1361 61.7767 32.5262 60.0796 34.7022Z" fill="#CECECE" stroke="#8D8D8D" stroke-linecap="round" stroke-linejoin="round"/>
<path d="M50.4844 46.5107L52.1098 48.1363L50.4844 49.7617" stroke="#8D8D8D" stroke-linecap="round" stroke-linejoin="round"/>
<path d="M60.4902 46.5107L58.8648 48.1363L60.4902 49.7617" stroke="#8D8D8D" stroke-linecap="round" stroke-linejoin="round"/>
<path d="M58.2202 53.2861H52.7539" stroke="#8D8D8D" stroke-linecap="round" stroke-linejoin="round"/>
<path d="M51.4016 1.00005C51.4016 1.00005 48.8607 3.98089 51.8227 6.52316C48.8607 3.98084 46.2996 6.94428 46.2996 6.94428C46.2996 6.94428 48.8405 3.96344 45.8784 1.42112C48.8405 3.96344 51.4016 1.00005 51.4016 1.00005Z" fill="#FCFCFC" stroke="#8D8D8D" stroke-linecap="round" stroke-linejoin="round"/>
<path d="M23.4315 67.5257C23.4315 67.5257 19.527 67.8368 19.8238 71.7289C19.527 67.8367 15.6206 68.1213 15.6206 68.1213C15.6206 68.1213 19.525 67.8101 19.2283 63.918C19.525 67.8101 23.4315 67.5257 23.4315 67.5257Z" fill="#FCFCFC" stroke="#8D8D8D" stroke-linecap="round" stroke-linejoin="round"/>
</svg>
