<svg width="64" height="88" viewBox="0 0 64 88" fill="none" xmlns="http://www.w3.org/2000/svg">
<mask id="mask0_2117_46075" style="mask-type:luminance" maskUnits="userSpaceOnUse" x="7" y="7" width="50" height="50">
<circle cx="32.0002" cy="32" r="24.8889" fill="white"/>
</mask>
<g mask="url(#mask0_2117_46075)">
<circle cx="32.0002" cy="32" r="24.8889" fill="url(#paint0_linear_2117_46075)"/>
<g style="mix-blend-mode:color-burn" opacity="0.04">
<path fill-rule="evenodd" clip-rule="evenodd" d="M9.77781 9.77759C7.81413 9.77759 6.22225 11.3695 6.22225 13.3331C6.22225 15.2968 7.81413 16.8887 9.77781 16.8887H16C17.9637 16.8887 19.5556 15.2968 19.5556 13.3331C19.5556 11.3695 17.9637 9.77759 16 9.77759H9.77781ZM41.7778 24.0003C39.8141 24.0003 38.2222 25.5922 38.2222 27.5559C38.2222 29.5196 39.8141 31.1114 41.7778 31.1114H63.1111C65.0748 31.1114 66.6667 29.5196 66.6667 27.5559C66.6667 25.5922 65.0748 24.0003 63.1111 24.0003H41.7778ZM32 48.889C32 46.9253 33.5919 45.3334 35.5556 45.3334H56.8889C58.8526 45.3334 60.4444 46.9253 60.4444 48.889C60.4444 50.8526 58.8526 52.4445 56.8889 52.4445H35.5556C33.5919 52.4445 32 50.8526 32 48.889ZM8.88889 38.2224C6.92521 38.2224 5.33333 39.8143 5.33333 41.7779C5.33333 43.7416 6.92521 45.3335 8.88889 45.3335H23.1111C25.0748 45.3335 26.6667 43.7416 26.6667 41.7779C26.6667 39.8143 25.0748 38.2224 23.1111 38.2224H8.88889ZM3.55556 30.2221C3.55556 29.2403 4.35149 28.4443 5.33333 28.4443H13.3333C14.3152 28.4443 15.1111 29.2403 15.1111 30.2221C15.1111 31.204 14.3152 31.9999 13.3333 31.9999H5.33334C4.3515 31.9999 3.55556 31.204 3.55556 30.2221ZM5.33333 20.4445C4.35149 20.4445 3.55556 21.2405 3.55556 22.2223C3.55556 23.2041 4.35149 24.0001 5.33333 24.0001H30.2222C31.2041 24.0001 32 23.2041 32 22.2223C32 21.2405 31.2041 20.4445 30.2222 20.4445H5.33333ZM26.6666 11.5554C26.6666 10.5735 27.4626 9.77759 28.4444 9.77759H53.3333C54.3151 9.77759 55.1111 10.5735 55.1111 11.5554C55.1111 12.5372 54.3151 13.3331 53.3333 13.3331H28.4444C27.4626 13.3331 26.6666 12.5372 26.6666 11.5554ZM1.77778 50.6668C0.795939 50.6668 0 51.4628 0 52.4446C0 53.4264 0.795938 54.2224 1.77778 54.2224H26.6667C27.6485 54.2224 28.4444 53.4264 28.4444 52.4446C28.4444 51.4628 27.6485 50.6668 26.6667 50.6668H1.77778ZM38.2222 18.6671C38.2222 17.6852 39.0182 16.8893 40 16.8893H64.8889C65.8707 16.8893 66.6667 17.6852 66.6667 18.6671C66.6667 19.6489 65.8707 20.4449 64.8889 20.4449H40C39.0182 20.4449 38.2222 19.6489 38.2222 18.6671ZM35.1408 34.6666C33.7008 34.6666 32.5334 35.8339 32.5334 37.274C32.5334 38.714 33.7008 39.8814 35.1408 39.8814H56.7112C58.1512 39.8814 59.3186 38.714 59.3186 37.274C59.3186 35.8339 58.1512 34.6666 56.7112 34.6666H35.1408Z" fill="black"/>
</g>
</g>
<g opacity="0.1">
<ellipse cx="31.9999" cy="31.9999" rx="19.5556" ry="19.5556" fill="#F3A02A" style="mix-blend-mode:multiply"/>
</g>
<g filter="url(#filter0_d_2117_46075)">
<path fill-rule="evenodd" clip-rule="evenodd" d="M24.8887 32H39.1109V60.5586C39.1109 61.3128 38.3078 61.7956 37.6417 61.4417L31.9998 58.4444L26.3578 61.4417C25.6918 61.7956 24.8887 61.3128 24.8887 60.5586V32Z" fill="#F56123"/>
</g>
<circle style="mix-blend-mode:multiply" opacity="0.2" cx="31.9999" cy="33.7778" r="17.7778" fill="#F0BA6E"/>
<g filter="url(#filter1_d_2117_46075)">
<circle cx="31.9999" cy="31.9999" r="17.7778" fill="url(#paint1_linear_2117_46075)"/>
</g>
<mask id="mask1_2117_46075" style="mask-type:luminance" maskUnits="userSpaceOnUse" x="14" y="14" width="36" height="36">
<circle cx="31.9999" cy="31.9999" r="17.7778" fill="white"/>
</mask>
<g mask="url(#mask1_2117_46075)">
<path d="M14.6665 31.9998C14.6665 41.5728 22.4269 49.3332 31.9998 49.3332C41.5728 49.3332 49.3332 41.5728 49.3332 31.9998" stroke="#DA913B"/>
<path d="M44.2563 44.2565C47.3931 41.1197 49.3332 36.7864 49.3332 31.9999C49.3332 29.3917 48.7571 26.918 47.7252 24.6992" stroke="#E1A04B" stroke-linecap="round"/>
<path d="M45.6844 21.36C42.5127 17.2866 37.5623 14.6665 31.9998 14.6665C22.4269 14.6665 14.6665 22.4269 14.6665 31.9998C14.6665 36.7863 16.6066 41.1196 19.7433 44.2564" stroke="#E1A04B" stroke-linecap="round"/>
<path opacity="0.6" d="M45.6889 21.3659C42.5175 17.2891 37.5649 14.6665 31.9998 14.6665C26.4031 14.6665 21.4259 17.319 18.2568 21.4355" stroke="#FFC875" stroke-linecap="round"/>
<path opacity="0.8" d="M32.0002 14.6665C28.7484 14.6665 25.7058 15.5619 23.1055 17.1196" stroke="#FFECD0" stroke-linecap="round"/>
<g style="mix-blend-mode:multiply" opacity="0.2">
<rect x="35.4121" y="36.237" width="8.66667" height="30.8889" rx="4.33333" transform="rotate(45 35.4121 36.237)" stroke="#EBB570" stroke-width="2"/>
</g>
<g style="mix-blend-mode:multiply" opacity="0.2">
<path d="M33.8965 41.5927C34.486 41.0032 35.4418 41.0032 36.0313 41.5927C36.6208 42.1822 36.6208 43.138 36.0313 43.7275L18.8385 60.9203C18.249 61.5098 17.2932 61.5098 16.7037 60.9203C16.1142 60.3308 16.1142 59.375 16.7037 58.7855L33.8965 41.5927Z" stroke="#EBB570" stroke-width="2"/>
</g>
<g style="mix-blend-mode:multiply" opacity="0.2">
<path d="M0.117912 25.2961C4.30765 21.1063 11.1006 21.1063 15.2903 25.2961C19.48 29.4858 19.48 36.2787 15.2903 40.4684L11.1351 44.6236C6.94534 48.8134 0.152433 48.8134 -4.0373 44.6236C-8.22703 40.4339 -8.22703 33.641 -4.0373 29.4513L0.117912 25.2961Z" stroke="#EBB570" stroke-width="2"/>
</g>
<g style="mix-blend-mode:multiply" opacity="0.2">
<rect x="47.8569" y="7.79263" width="8.66667" height="30.8889" rx="4.33333" transform="rotate(45 47.8569 7.79263)" stroke="#EBB570" stroke-width="2"/>
</g>
<g style="mix-blend-mode:multiply" opacity="0.2">
<path d="M48.7861 10.8569C49.3756 10.2673 50.3314 10.2673 50.9209 10.8569C51.5104 11.4464 51.5104 12.4021 50.9209 12.9917L31.214 32.6986C30.6245 33.2881 29.6687 33.2881 29.0792 32.6986C28.4897 32.1091 28.4897 31.1533 29.0792 30.5638L48.7861 10.8569Z" stroke="#EBB570" stroke-width="2"/>
</g>
</g>
<g filter="url(#filter2_d_2117_46075)">
<ellipse cx="31.9998" cy="32.0001" rx="13.3333" ry="13.3333" fill="url(#paint2_linear_2117_46075)"/>
<path d="M31.9998 45.8334C39.6398 45.8334 45.8332 39.64 45.8332 32.0001C45.8332 24.3601 39.6398 18.1667 31.9998 18.1667C24.3599 18.1667 18.1665 24.3601 18.1665 32.0001C18.1665 39.64 24.3599 45.8334 31.9998 45.8334Z" stroke="#D78834" stroke-opacity="0.06"/>
</g>
<mask id="mask2_2117_46075" style="mask-type:luminance" maskUnits="userSpaceOnUse" x="18" y="18" width="28" height="28">
<ellipse cx="31.9998" cy="32.0001" rx="13.3333" ry="13.3333" fill="white"/>
</mask>
<g mask="url(#mask2_2117_46075)">
<g style="mix-blend-mode:multiply" opacity="0.2">
<path d="M1.89574 25.2961C6.08548 21.1063 12.8784 21.1063 17.0681 25.2961C21.2579 29.4858 21.2579 36.2787 17.0681 40.4684L12.9129 44.6236C8.72317 48.8134 1.93027 48.8134 -2.25947 44.6236C-6.4492 40.4339 -6.4492 33.641 -2.25947 29.4513L1.89574 25.2961Z" stroke="#EBB570" stroke-width="2"/>
</g>
<g style="mix-blend-mode:multiply" opacity="0.2">
<rect x="49.9229" y="1.41421" width="8.66667" height="30.8889" rx="4.33333" transform="rotate(45 49.9229 1.41421)" stroke="#EBB570" stroke-width="2"/>
</g>
<g style="mix-blend-mode:multiply" opacity="0.2">
<rect x="36.3013" y="34.4594" width="8.66667" height="30.8889" rx="4.33333" transform="rotate(45 36.3013 34.4594)" stroke="#EBB570" stroke-width="2"/>
</g>
<g style="mix-blend-mode:multiply" opacity="0.2">
<path d="M50.7856 4.25945C51.3751 3.66994 52.3309 3.66994 52.9204 4.25945C53.5099 4.84895 53.5099 5.80474 52.9204 6.39425L35.7276 23.587C35.1381 24.1765 34.1823 24.1765 33.5928 23.587C33.0033 22.9975 33.0033 22.0417 33.5928 21.4522L50.7856 4.25945Z" stroke="#EBB570" stroke-width="2"/>
</g>
<g style="mix-blend-mode:multiply" opacity="0.2">
<path d="M34.4975 39.9714C35.087 39.3819 36.0428 39.3819 36.6323 39.9714C37.2219 40.5609 37.2219 41.5167 36.6323 42.1062L19.4396 59.2989C18.85 59.8884 17.8943 59.8884 17.3048 59.2989C16.7152 58.7094 16.7152 57.7537 17.3048 57.1641L34.4975 39.9714Z" stroke="#EBB570" stroke-width="2"/>
</g>
<path opacity="0.8" d="M31.9999 19.1111C30.2524 19.1111 28.586 19.4589 27.0664 20.089" stroke="#FFECD0" stroke-linecap="round"/>
</g>
<g filter="url(#filter3_d_2117_46075)">
<mask id="path-28-outside-1_2117_46075" maskUnits="userSpaceOnUse" x="23.8887" y="22.1111" width="17" height="18" fill="black">
<rect fill="white" x="23.8887" y="22.1111" width="17" height="18"/>
<path fill-rule="evenodd" clip-rule="evenodd" d="M35.9998 23.1111C35.9998 23.1111 35.1109 23.1111 33.7776 24C32.9283 24.5662 32.4396 25.3127 32.1968 25.7801C32.1313 25.7785 32.0657 25.7778 31.9998 25.7778C28.0724 25.7778 24.8887 28.5635 24.8887 32C24.8887 35.4364 28.0724 38.2222 31.9998 38.2222C35.9271 38.2222 39.1109 35.4364 39.1109 32C39.1109 29.8968 37.9184 28.0374 36.0928 26.9111C36.0762 26.8398 36.0457 26.7585 35.9998 26.6666C35.1109 24.8889 35.9998 23.1111 35.9998 23.1111Z"/>
</mask>
<path fill-rule="evenodd" clip-rule="evenodd" d="M35.9998 23.1111C35.9998 23.1111 35.1109 23.1111 33.7776 24C32.9283 24.5662 32.4396 25.3127 32.1968 25.7801C32.1313 25.7785 32.0657 25.7778 31.9998 25.7778C28.0724 25.7778 24.8887 28.5635 24.8887 32C24.8887 35.4364 28.0724 38.2222 31.9998 38.2222C35.9271 38.2222 39.1109 35.4364 39.1109 32C39.1109 29.8968 37.9184 28.0374 36.0928 26.9111C36.0762 26.8398 36.0457 26.7585 35.9998 26.6666C35.1109 24.8889 35.9998 23.1111 35.9998 23.1111Z" fill="white"/>
<path d="M33.7776 24L34.3323 24.832L34.3323 24.832L33.7776 24ZM35.9998 23.1111L36.8942 23.5583C37.0492 23.2483 37.0326 22.8802 36.8504 22.5854C36.6682 22.2905 36.3464 22.1111 35.9998 22.1111V23.1111ZM32.1968 25.7801L32.173 26.7798C32.5546 26.7889 32.9081 26.5799 33.0841 26.2412L32.1968 25.7801ZM36.0928 26.9111L35.1186 27.1369C35.1789 27.3969 35.3406 27.6221 35.5677 27.7622L36.0928 26.9111ZM35.9998 26.6666L35.1054 27.1139L35.1054 27.1139L35.9998 26.6666ZM34.3323 24.832C34.912 24.4455 35.373 24.2667 35.6634 24.1837C35.8093 24.142 35.9144 24.1239 35.9722 24.1162C36.0012 24.1123 36.0185 24.1111 36.0234 24.1107C36.0258 24.1106 36.0251 24.1107 36.0212 24.1108C36.0193 24.1109 36.0165 24.1109 36.0129 24.111C36.0112 24.111 36.0092 24.111 36.007 24.1111C36.0059 24.1111 36.0047 24.1111 36.0035 24.1111C36.0029 24.1111 36.0023 24.1111 36.0017 24.1111C36.0014 24.1111 36.0009 24.1111 36.0007 24.1111C36.0003 24.1111 35.9998 24.1111 35.9998 23.1111C35.9998 22.1111 35.9993 22.1111 35.9988 22.1111C35.9986 22.1111 35.9981 22.1111 35.9978 22.1111C35.9971 22.1111 35.9964 22.1111 35.9957 22.1111C35.9943 22.1111 35.9928 22.1111 35.9913 22.1111C35.9882 22.1111 35.985 22.1112 35.9814 22.1112C35.9744 22.1113 35.9665 22.1115 35.9577 22.1118C35.9402 22.1124 35.9191 22.1133 35.8946 22.1149C35.8456 22.1181 35.7831 22.1237 35.7079 22.1337C35.5574 22.1538 35.3569 22.1913 35.1139 22.2607C34.6266 22.3999 33.9764 22.6655 33.2229 23.1679L34.3323 24.832ZM33.0841 26.2412C33.28 25.8641 33.6702 25.2734 34.3323 24.832L33.2229 23.1679C32.1864 23.8589 31.5992 24.7613 31.3094 25.319L33.0841 26.2412ZM31.9998 26.7778C32.0577 26.7778 32.1154 26.7784 32.173 26.7798L32.2206 24.7804C32.1472 24.7786 32.0736 24.7778 31.9998 24.7778V26.7778ZM25.8887 32C25.8887 29.2371 28.4951 26.7778 31.9998 26.7778V24.7778C27.6497 24.7778 23.8887 27.89 23.8887 32H25.8887ZM31.9998 37.2222C28.4951 37.2222 25.8887 34.7629 25.8887 32H23.8887C23.8887 36.1099 27.6497 39.2222 31.9998 39.2222V37.2222ZM38.1109 32C38.1109 34.7629 35.5045 37.2222 31.9998 37.2222V39.2222C36.3498 39.2222 40.1109 36.1099 40.1109 32H38.1109ZM35.5677 27.7622C37.1462 28.736 38.1109 30.2966 38.1109 32H40.1109C40.1109 29.4971 38.6907 27.3389 36.6178 26.0601L35.5677 27.7622ZM35.1054 27.1139C35.1154 27.134 35.1204 27.1462 35.1223 27.1512C35.1242 27.1562 35.1219 27.1511 35.1186 27.1369L37.067 26.6854C37.0279 26.5169 36.9646 26.3602 36.8942 26.2194L35.1054 27.1139ZM35.9998 23.1111C35.1054 22.6639 35.1052 22.6642 35.105 22.6646C35.1049 22.6647 35.1047 22.6651 35.1046 22.6654C35.1044 22.6659 35.1041 22.6664 35.1038 22.667C35.1032 22.6682 35.1026 22.6694 35.1019 22.6708C35.1005 22.6736 35.099 22.6768 35.0972 22.6805C35.0936 22.6878 35.0893 22.6969 35.0842 22.7078C35.0741 22.7295 35.061 22.7582 35.0458 22.7933C35.0153 22.8636 34.9758 22.9605 34.933 23.0803C34.8479 23.3188 34.7472 23.6548 34.6801 24.0578C34.5465 24.8592 34.5377 25.9785 35.1054 27.1139L36.8942 26.2194C36.573 25.577 36.5642 24.9186 36.6528 24.3866C36.6968 24.123 36.7628 23.9033 36.8165 23.753C36.8432 23.6784 36.8662 23.6224 36.8809 23.5886C36.8882 23.5717 36.8934 23.5604 36.8958 23.5552C36.897 23.5526 36.8976 23.5515 36.8973 23.552C36.8972 23.5522 36.8969 23.5529 36.8964 23.5539C36.8961 23.5545 36.8958 23.5551 36.8954 23.5558C36.8953 23.5562 36.8951 23.5566 36.8949 23.557C36.8948 23.5572 36.8946 23.5575 36.8945 23.5576C36.8944 23.558 36.8942 23.5583 35.9998 23.1111Z" fill="white" mask="url(#path-28-outside-1_2117_46075)"/>
</g>
<g filter="url(#filter4_i_2117_46075)">
<path fill-rule="evenodd" clip-rule="evenodd" d="M35.9998 23.1111C35.9998 23.1111 35.1109 23.1111 33.7776 24C32.9283 24.5662 32.4396 25.3127 32.1968 25.7801C32.1313 25.7785 32.0657 25.7778 31.9998 25.7778C28.0724 25.7778 24.8887 28.5635 24.8887 32C24.8887 35.4364 28.0724 38.2222 31.9998 38.2222C35.9271 38.2222 39.1109 35.4364 39.1109 32C39.1109 29.9937 38.0258 28.2093 36.341 27.0714C36.1929 26.9301 36.0582 26.7834 35.9998 26.6666C35.1109 24.8889 35.9998 23.1111 35.9998 23.1111Z" fill="url(#paint3_linear_2117_46075)"/>
</g>
<path d="M33.7776 24L34.3323 24.832V24.832L33.7776 24ZM35.9998 23.1111L36.8942 23.5583C37.0492 23.2483 37.0326 22.8802 36.8504 22.5854C36.6682 22.2905 36.3464 22.1111 35.9998 22.1111V23.1111ZM32.1968 25.7801L32.173 26.7798C32.5546 26.7889 32.9081 26.5799 33.0841 26.2412L32.1968 25.7801ZM36.341 27.0714L35.6507 27.7949C35.6912 27.8336 35.7349 27.8688 35.7813 27.9001L36.341 27.0714ZM35.9998 26.6666L36.8942 26.2194L36.8942 26.2194L35.9998 26.6666ZM34.3323 24.832C34.912 24.4455 35.373 24.2667 35.6634 24.1837C35.8093 24.142 35.9144 24.1239 35.9722 24.1162C36.0012 24.1123 36.0185 24.1111 36.0234 24.1107C36.0258 24.1106 36.0251 24.1107 36.0212 24.1108C36.0193 24.1109 36.0165 24.1109 36.0129 24.111C36.0112 24.111 36.0092 24.111 36.007 24.1111C36.0059 24.1111 36.0047 24.1111 36.0035 24.1111C36.0029 24.1111 36.0023 24.1111 36.0017 24.1111C36.0014 24.1111 36.0009 24.1111 36.0008 24.1111C36.0003 24.1111 35.9998 24.1111 35.9998 23.1111C35.9998 22.1111 35.9993 22.1111 35.9988 22.1111C35.9986 22.1111 35.9981 22.1111 35.9978 22.1111C35.9971 22.1111 35.9964 22.1111 35.9957 22.1111C35.9943 22.1111 35.9928 22.1111 35.9913 22.1111C35.9882 22.1111 35.985 22.1112 35.9814 22.1112C35.9744 22.1113 35.9665 22.1115 35.9577 22.1118C35.9402 22.1124 35.9191 22.1133 35.8946 22.1149C35.8456 22.1181 35.7831 22.1237 35.7079 22.1337C35.5574 22.1538 35.3569 22.1913 35.114 22.2607C34.6266 22.3999 33.9764 22.6655 33.2229 23.1679L34.3323 24.832ZM33.0841 26.2412C33.28 25.8641 33.6702 25.2734 34.3323 24.832L33.2229 23.1679C32.1864 23.8589 31.5992 24.7613 31.3094 25.319L33.0841 26.2412ZM31.9998 26.7778C32.0577 26.7778 32.1154 26.7784 32.173 26.7798L32.2206 24.7804C32.1472 24.7786 32.0736 24.7778 31.9998 24.7778V26.7778ZM25.8887 32C25.8887 29.2371 28.4951 26.7778 31.9998 26.7778V24.7778C27.6497 24.7778 23.8887 27.89 23.8887 32H25.8887ZM31.9998 37.2222C28.4951 37.2222 25.8887 34.7629 25.8887 32H23.8887C23.8887 36.1099 27.6497 39.2222 31.9998 39.2222V37.2222ZM38.1109 32C38.1109 34.7629 35.5045 37.2222 31.9998 37.2222V39.2222C36.3498 39.2222 40.1109 36.1099 40.1109 32H38.1109ZM35.7813 27.9001C37.2332 28.8807 38.1109 30.3741 38.1109 32H40.1109C40.1109 29.6134 38.8183 27.5379 36.9007 26.2427L35.7813 27.9001ZM35.1054 27.1139C35.2512 27.4056 35.5094 27.6601 35.6507 27.7949L37.0313 26.3479C36.9705 26.2899 36.9247 26.2423 36.8938 26.2064C36.8788 26.189 36.8717 26.1796 36.8703 26.1776C36.868 26.1744 36.879 26.1889 36.8942 26.2194L35.1054 27.1139ZM35.9998 23.1111C35.1054 22.6639 35.1052 22.6642 35.105 22.6646C35.1049 22.6647 35.1047 22.6651 35.1046 22.6654C35.1044 22.6659 35.1041 22.6664 35.1038 22.667C35.1032 22.6682 35.1026 22.6694 35.1019 22.6708C35.1005 22.6736 35.099 22.6768 35.0972 22.6805C35.0936 22.6878 35.0893 22.6969 35.0842 22.7078C35.0741 22.7295 35.061 22.7582 35.0458 22.7933C35.0153 22.8636 34.9758 22.9605 34.933 23.0803C34.8479 23.3188 34.7472 23.6548 34.6801 24.0578C34.5465 24.8592 34.5377 25.9785 35.1054 27.1139L36.8942 26.2194C36.573 25.577 36.5642 24.9186 36.6528 24.3866C36.6968 24.123 36.7628 23.9033 36.8165 23.753C36.8432 23.6784 36.8662 23.6224 36.8809 23.5886C36.8882 23.5717 36.8934 23.5604 36.8958 23.5552C36.897 23.5526 36.8976 23.5515 36.8973 23.552C36.8972 23.5522 36.8969 23.5529 36.8964 23.5539C36.8961 23.5545 36.8958 23.5551 36.8955 23.5558C36.8953 23.5562 36.8951 23.5566 36.8949 23.557C36.8948 23.5572 36.8946 23.5575 36.8946 23.5576C36.8944 23.558 36.8942 23.5583 35.9998 23.1111Z" fill="#FFECD0"/>
<circle cx="29.5554" cy="31.3333" r="1.11111" fill="#FFECD0"/>
<circle cx="34.4441" cy="31.3333" r="1.11111" fill="#FFECD0"/>
<path d="M18.528 83V73.48H20.138V83H18.528ZM15.336 74.67V73.2H23.33V74.67H15.336ZM25.8656 83.14C25.2123 83.14 24.6196 82.986 24.0876 82.678C23.5556 82.3607 23.131 81.936 22.8136 81.404C22.5056 80.872 22.3516 80.2793 22.3516 79.626C22.3516 78.9727 22.5056 78.3847 22.8136 77.862C23.131 77.3393 23.5556 76.924 24.0876 76.616C24.6196 76.2987 25.2123 76.14 25.8656 76.14C26.5283 76.14 27.1256 76.294 27.6576 76.602C28.1896 76.91 28.6096 77.33 28.9176 77.862C29.235 78.3847 29.3936 78.9727 29.3936 79.626C29.3936 80.2793 29.235 80.872 28.9176 81.404C28.6096 81.936 28.1896 82.3607 27.6576 82.678C27.1256 82.986 26.5283 83.14 25.8656 83.14ZM25.8656 81.656C26.2483 81.656 26.5843 81.572 26.8736 81.404C27.1723 81.2267 27.401 80.984 27.5596 80.676C27.7276 80.368 27.8116 80.018 27.8116 79.626C27.8116 79.234 27.7276 78.8887 27.5596 78.59C27.3916 78.2913 27.163 78.058 26.8736 77.89C26.5843 77.7127 26.2483 77.624 25.8656 77.624C25.4923 77.624 25.1563 77.7127 24.8576 77.89C24.5683 78.058 24.3396 78.2913 24.1716 78.59C24.013 78.8887 23.9336 79.234 23.9336 79.626C23.9336 80.018 24.013 80.368 24.1716 80.676C24.3396 80.984 24.5683 81.2267 24.8576 81.404C25.1563 81.572 25.4923 81.656 25.8656 81.656ZM34.2723 83.14C33.759 83.14 33.3016 83.0327 32.9003 82.818C32.499 82.594 32.1816 82.2907 31.9483 81.908C31.7243 81.5253 31.6123 81.0913 31.6123 80.606V78.674C31.6123 78.1887 31.729 77.7547 31.9623 77.372C32.1956 76.9893 32.513 76.6907 32.9143 76.476C33.3156 76.252 33.7683 76.14 34.2723 76.14C34.879 76.14 35.425 76.2987 35.9103 76.616C36.405 76.924 36.7923 77.344 37.0723 77.876C37.3616 78.3987 37.5063 78.9913 37.5063 79.654C37.5063 80.3073 37.3616 80.9 37.0723 81.432C36.7923 81.9547 36.405 82.37 35.9103 82.678C35.425 82.986 34.879 83.14 34.2723 83.14ZM30.6743 85.8V76.28H32.2143V78.086L31.9483 79.724L32.2143 81.348V85.8H30.6743ZM34.0203 81.684C34.3936 81.684 34.7203 81.6 35.0003 81.432C35.2896 81.2547 35.5136 81.012 35.6723 80.704C35.8403 80.396 35.9243 80.0413 35.9243 79.64C35.9243 79.2387 35.8403 78.884 35.6723 78.576C35.5136 78.268 35.2896 78.03 35.0003 77.862C34.7203 77.6847 34.3936 77.596 34.0203 77.596C33.647 77.596 33.3156 77.6847 33.0263 77.862C32.737 78.03 32.513 78.268 32.3543 78.576C32.1956 78.884 32.1163 79.2387 32.1163 79.64C32.1163 80.0413 32.1956 80.396 32.3543 80.704C32.513 81.012 32.737 81.2547 33.0263 81.432C33.3156 81.6 33.647 81.684 34.0203 81.684ZM44.1881 83.14C43.5348 83.14 42.9421 83.0233 42.4101 82.79C41.8875 82.5473 41.4441 82.1973 41.0801 81.74L42.1721 80.648C42.3681 80.9467 42.6435 81.1847 42.9981 81.362C43.3528 81.5393 43.7401 81.628 44.1601 81.628C44.5615 81.628 44.9068 81.5533 45.1961 81.404C45.4855 81.2547 45.7095 81.0447 45.8681 80.774C46.0361 80.5033 46.1201 80.1907 46.1201 79.836C46.1201 79.4627 46.0361 79.1453 45.8681 78.884C45.7095 78.6227 45.4761 78.422 45.1681 78.282C44.8695 78.1327 44.5055 78.058 44.0761 78.058C43.9081 78.058 43.7355 78.072 43.5581 78.1C43.3808 78.1187 43.2221 78.1513 43.0821 78.198L43.7961 77.274C43.9921 77.1993 44.1975 77.1387 44.4121 77.092C44.6361 77.036 44.8508 77.008 45.0561 77.008C45.5601 77.008 46.0128 77.1293 46.4141 77.372C46.8248 77.6147 47.1468 77.9553 47.3801 78.394C47.6228 78.8233 47.7441 79.332 47.7441 79.92C47.7441 80.5547 47.5948 81.1147 47.2961 81.6C46.9975 82.0853 46.5821 82.4633 46.0501 82.734C45.5181 83.0047 44.8975 83.14 44.1881 83.14ZM43.0821 78.198V77.246L45.7001 74.194L47.6321 74.152L44.9021 77.288L43.0821 78.198ZM41.5701 74.642V73.2H47.6321V74.152L46.2461 74.642H41.5701Z" fill="#646464"/>
<defs>
<filter id="filter0_d_2117_46075" x="22.8887" y="32" width="18.2222" height="33.5601" filterUnits="userSpaceOnUse" color-interpolation-filters="sRGB">
<feFlood flood-opacity="0" result="BackgroundImageFix"/>
<feColorMatrix in="SourceAlpha" type="matrix" values="0 0 0 0 0 0 0 0 0 0 0 0 0 0 0 0 0 0 127 0" result="hardAlpha"/>
<feOffset dy="2"/>
<feGaussianBlur stdDeviation="1"/>
<feColorMatrix type="matrix" values="0 0 0 0 0.937255 0 0 0 0 0.67451 0 0 0 0 0.235294 0 0 0 0.2 0"/>
<feBlend mode="darken" in2="BackgroundImageFix" result="effect1_dropShadow_2117_46075"/>
<feBlend mode="normal" in="SourceGraphic" in2="effect1_dropShadow_2117_46075" result="shape"/>
</filter>
<filter id="filter1_d_2117_46075" x="10.2222" y="12.2222" width="43.5557" height="43.5557" filterUnits="userSpaceOnUse" color-interpolation-filters="sRGB">
<feFlood flood-opacity="0" result="BackgroundImageFix"/>
<feColorMatrix in="SourceAlpha" type="matrix" values="0 0 0 0 0 0 0 0 0 0 0 0 0 0 0 0 0 0 127 0" result="hardAlpha"/>
<feOffset dy="2"/>
<feGaussianBlur stdDeviation="2"/>
<feColorMatrix type="matrix" values="0 0 0 0 0.752941 0 0 0 0 0.266667 0 0 0 0 0.266667 0 0 0 0.2 0"/>
<feBlend mode="normal" in2="BackgroundImageFix" result="effect1_dropShadow_2117_46075"/>
<feBlend mode="normal" in="SourceGraphic" in2="effect1_dropShadow_2117_46075" result="shape"/>
</filter>
<filter id="filter2_d_2117_46075" x="15.6665" y="16.6667" width="32.6665" height="32.6667" filterUnits="userSpaceOnUse" color-interpolation-filters="sRGB">
<feFlood flood-opacity="0" result="BackgroundImageFix"/>
<feColorMatrix in="SourceAlpha" type="matrix" values="0 0 0 0 0 0 0 0 0 0 0 0 0 0 0 0 0 0 127 0" result="hardAlpha"/>
<feOffset dy="1"/>
<feGaussianBlur stdDeviation="1"/>
<feColorMatrix type="matrix" values="0 0 0 0 0.643137 0 0 0 0 0.301509 0 0 0 0 0.0196078 0 0 0 0.2 0"/>
<feBlend mode="normal" in2="BackgroundImageFix" result="effect1_dropShadow_2117_46075"/>
<feBlend mode="normal" in="SourceGraphic" in2="effect1_dropShadow_2117_46075" result="shape"/>
</filter>
<filter id="filter3_d_2117_46075" x="21.8887" y="21.1111" width="20.2222" height="21.1111" filterUnits="userSpaceOnUse" color-interpolation-filters="sRGB">
<feFlood flood-opacity="0" result="BackgroundImageFix"/>
<feColorMatrix in="SourceAlpha" type="matrix" values="0 0 0 0 0 0 0 0 0 0 0 0 0 0 0 0 0 0 127 0" result="hardAlpha"/>
<feOffset dy="1"/>
<feGaussianBlur stdDeviation="1"/>
<feColorMatrix type="matrix" values="0 0 0 0 0.625 0 0 0 0 0.409034 0 0 0 0 0.12934 0 0 0 0.22 0"/>
<feBlend mode="normal" in2="BackgroundImageFix" result="effect1_dropShadow_2117_46075"/>
<feBlend mode="normal" in="SourceGraphic" in2="effect1_dropShadow_2117_46075" result="shape"/>
</filter>
<filter id="filter4_i_2117_46075" x="23.8887" y="22.1111" width="16.2222" height="18.1111" filterUnits="userSpaceOnUse" color-interpolation-filters="sRGB">
<feFlood flood-opacity="0" result="BackgroundImageFix"/>
<feBlend mode="normal" in="SourceGraphic" in2="BackgroundImageFix" result="shape"/>
<feColorMatrix in="SourceAlpha" type="matrix" values="0 0 0 0 0 0 0 0 0 0 0 0 0 0 0 0 0 0 127 0" result="hardAlpha"/>
<feOffset dy="1"/>
<feGaussianBlur stdDeviation="0.5"/>
<feComposite in2="hardAlpha" operator="arithmetic" k2="-1" k3="1"/>
<feColorMatrix type="matrix" values="0 0 0 0 0.801791 0 0 0 0 0.623822 0 0 0 0 0.41026 0 0 0 1 0"/>
<feBlend mode="normal" in2="shape" result="effect1_innerShadow_2117_46075"/>
</filter>
<linearGradient id="paint0_linear_2117_46075" x1="7.11133" y1="7.11108" x2="7.11133" y2="56.8889" gradientUnits="userSpaceOnUse">
<stop stop-color="#FFDD72"/>
<stop offset="1" stop-color="#FFC32B"/>
</linearGradient>
<linearGradient id="paint1_linear_2117_46075" x1="14.2222" y1="14.2222" x2="14.2222" y2="49.7777" gradientUnits="userSpaceOnUse">
<stop stop-color="#F9C685"/>
<stop offset="1" stop-color="#DB963B"/>
</linearGradient>
<linearGradient id="paint2_linear_2117_46075" x1="18.6665" y1="18.6667" x2="18.6665" y2="45.3334" gradientUnits="userSpaceOnUse">
<stop stop-color="#FDDA9D"/>
<stop offset="1" stop-color="#EFB35E"/>
</linearGradient>
<linearGradient id="paint3_linear_2117_46075" x1="24.8887" y1="23.1111" x2="24.8887" y2="38.2222" gradientUnits="userSpaceOnUse">
<stop stop-color="#F6C280"/>
<stop offset="1" stop-color="#E2A65E"/>
</linearGradient>
</defs>
</svg>
