<svg width="64" height="88" viewBox="0 0 64 88" fill="none" xmlns="http://www.w3.org/2000/svg">
<mask id="mask0_2117_46043" style="mask-type:luminance" maskUnits="userSpaceOnUse" x="8" y="8" width="56" height="56">
<circle cx="36" cy="36" r="28" fill="white"/>
</mask>
<g mask="url(#mask0_2117_46043)">
<circle cx="36" cy="36" r="28" fill="url(#paint0_linear_2117_46043)"/>
<g style="mix-blend-mode:color-burn" opacity="0.04">
<path fill-rule="evenodd" clip-rule="evenodd" d="M11 10.9998C8.7909 10.9998 7.00003 12.7906 7.00003 14.9998C7.00003 17.2089 8.7909 18.9998 11 18.9998H18C20.2092 18.9998 22 17.2089 22 14.9998C22 12.7906 20.2092 10.9998 18 10.9998H11ZM47 27.0003C44.7909 27.0003 43 28.7912 43 31.0003C43 33.2095 44.7909 35.0003 47 35.0003H71C73.2091 35.0003 75 33.2095 75 31.0003C75 28.7912 73.2091 27.0003 71 27.0003H47ZM36 55.0001C36 52.7909 37.7909 51.0001 40 51.0001H64C66.2091 51.0001 68 52.7909 68 55.0001C68 57.2092 66.2091 59.0001 64 59.0001H40C37.7909 59.0001 36 57.2092 36 55.0001ZM10 43.0002C7.79086 43.0002 6 44.791 6 47.0002C6 49.2093 7.79086 51.0002 10 51.0002H26C28.2091 51.0002 30 49.2093 30 47.0002C30 44.791 28.2091 43.0002 26 43.0002H10ZM4 33.9999C4 32.8953 4.89543 31.9999 6 31.9999H15C16.1046 31.9999 17 32.8953 17 33.9999C17 35.1044 16.1046 35.9999 15 35.9999H6C4.89543 35.9999 4 35.1044 4 33.9999ZM6 23.0001C4.89543 23.0001 4 23.8955 4 25.0001C4 26.1046 4.89543 27.0001 6 27.0001H34C35.1046 27.0001 36 26.1046 36 25.0001C36 23.8955 35.1046 23.0001 34 23.0001H6ZM30 12.9998C30 11.8952 30.8954 10.9998 32 10.9998H60C61.1045 10.9998 62 11.8952 62 12.9998C62 14.1043 61.1045 14.9998 60 14.9998H32C30.8954 14.9998 30 14.1043 30 12.9998ZM2 57.0002C0.895431 57.0002 0 57.8956 0 59.0002C0 60.1047 0.895431 61.0002 2 61.0002H30C31.1046 61.0002 32 60.1047 32 59.0002C32 57.8956 31.1046 57.0002 30 57.0002H2ZM43 21.0004C43 19.8959 43.8954 19.0004 45 19.0004H73C74.1046 19.0004 75 19.8959 75 21.0004C75 22.105 74.1046 23.0004 73 23.0004H45C43.8954 23.0004 43 22.105 43 21.0004ZM39.5334 38.9999C37.9134 38.9999 36.6001 40.3132 36.6001 41.9332C36.6001 43.5532 37.9134 44.8665 39.5334 44.8665H63.8001C65.4201 44.8665 66.7334 43.5532 66.7334 41.9332C66.7334 40.3132 65.4201 38.9999 63.8001 38.9999H39.5334Z" fill="black"/>
</g>
</g>
<g opacity="0.1">
<path fill-rule="evenodd" clip-rule="evenodd" d="M28.4733 12.3401C30.5763 10.8123 33.4238 10.8123 35.5268 12.3401L49.6079 22.5707C51.7109 24.0986 52.5908 26.8068 51.7876 29.2789L46.409 45.8323C45.6058 48.3044 43.3021 49.9782 40.7027 49.9782H23.2974C20.6981 49.9782 18.3943 48.3044 17.5911 45.8323L12.2125 29.2789C11.4093 26.8068 12.2893 24.0986 14.3922 22.5707L28.4733 12.3401Z" fill="#0E995E" style="mix-blend-mode:multiply"/>
</g>
<g filter="url(#filter0_d_2117_46043)">
<path fill-rule="evenodd" clip-rule="evenodd" d="M24.8887 32H39.1109V60.5586C39.1109 61.3128 38.3078 61.7956 37.6417 61.4417L31.9998 58.4444L26.3578 61.4417C25.6918 61.7956 24.8887 61.3128 24.8887 60.5586V32Z" fill="#12AAB5"/>
</g>
<mask id="mask1_2117_46043" style="mask-type:luminance" maskUnits="userSpaceOnUse" x="24" y="32" width="16" height="30">
<path fill-rule="evenodd" clip-rule="evenodd" d="M24.8887 32H39.1109V60.5586C39.1109 61.3128 38.3078 61.7956 37.6417 61.4417L31.9998 58.4444L26.3578 61.4417C25.6918 61.7956 24.8887 61.3128 24.8887 60.5586V32Z" fill="white"/>
</mask>
<g mask="url(#mask1_2117_46043)">
<path fill-rule="evenodd" clip-rule="evenodd" d="M28.4443 46.2222H35.5554V62.2222H28.4443V46.2222Z" fill="white"/>
</g>
<path style="mix-blend-mode:multiply" opacity="0.2" fill-rule="evenodd" clip-rule="evenodd" d="M29.649 15.0415C31.0509 14.0229 32.9493 14.0229 34.3512 15.0415L49.0928 25.7518C50.4947 26.7704 51.0814 28.5759 50.5459 30.2239L44.9151 47.5537C44.3796 49.2018 42.8438 50.3176 41.1109 50.3176H22.8893C21.1564 50.3176 19.6206 49.2018 19.0851 47.5537L13.4543 30.2239C12.9188 28.5759 13.5055 26.7704 14.9074 25.7518L29.649 15.0415Z" fill="#18AC6C"/>
<path fill-rule="evenodd" clip-rule="evenodd" d="M29.649 13.2639C31.0509 12.2453 32.9493 12.2453 34.3512 13.2639L49.0928 23.9742C50.4947 24.9928 51.0814 26.7983 50.5459 28.4464L44.9151 45.7761C44.3796 47.4242 42.8438 48.54 41.1109 48.54H22.8893C21.1564 48.54 19.6206 47.4242 19.0851 45.7761L13.4543 28.4464C12.9188 26.7983 13.5055 24.9928 14.9074 23.9742L29.649 13.2639Z" fill="url(#paint1_linear_2117_46043)"/>
<mask id="mask2_2117_46043" style="mask-type:luminance" maskUnits="userSpaceOnUse" x="13" y="12" width="38" height="37">
<path fill-rule="evenodd" clip-rule="evenodd" d="M29.649 13.2639C31.0509 12.2453 32.9493 12.2453 34.3512 13.2639L49.0928 23.9742C50.4947 24.9928 51.0814 26.7983 50.5459 28.4464L44.9151 45.7761C44.3796 47.4242 42.8438 48.54 41.1109 48.54H22.8893C21.1564 48.54 19.6206 47.4242 19.0851 45.7761L13.4543 28.4464C12.9188 26.7983 13.5055 24.9928 14.9074 23.9742L29.649 13.2639Z" fill="white"/>
</mask>
<g mask="url(#mask2_2117_46043)">
<path d="M33.829 13.4335C32.7386 12.6413 31.2621 12.6413 30.1717 13.4335L14.9077 24.5235C13.8173 25.3157 13.361 26.72 13.7775 28.0018L19.6078 45.9457C20.0243 47.2276 21.2188 48.0955 22.5667 48.0955H41.434C42.7818 48.0955 43.9764 47.2276 44.3929 45.9457L50.2232 28.0018C50.6397 26.72 50.1834 25.3157 49.093 24.5235L33.829 13.4335Z" stroke="#E67515"/>
<path d="M44.3926 45.9459L50.2229 28.002" stroke="#F68A2C" stroke-linecap="round"/>
<path d="M13.7773 28.002L19.6077 45.9459" stroke="#F68A2C" stroke-linecap="round"/>
<path d="M50.2232 28.0018C50.6397 26.72 50.1834 25.3157 49.093 24.5235L33.829 13.4335C32.7386 12.6413 31.2621 12.6413 30.1717 13.4335L14.9077 24.5235C13.8173 25.3157 13.361 26.72 13.7775 28.0018" stroke="#FAA953" stroke-linecap="round"/>
<path opacity="0.3" d="M33.8286 13.4335C32.7382 12.6413 31.2616 12.6413 30.1712 13.4335L14.9072 24.5235" stroke="white" stroke-linecap="round"/>
<path d="M30.1715 13.4336L26.3555 16.2061" stroke="white" stroke-linecap="round"/>
</g>
<g filter="url(#filter1_d_2117_46043)">
<path fill-rule="evenodd" clip-rule="evenodd" d="M30.8245 18.6319C31.5255 18.1226 32.4746 18.1226 33.1756 18.6319L44.3506 26.751C45.0516 27.2603 45.3449 28.1631 45.0772 28.9871L40.8087 42.1241C40.5409 42.9482 39.773 43.5061 38.9066 43.5061H25.0935C24.2271 43.5061 23.4592 42.9482 23.1914 42.1241L18.9229 28.9871C18.6552 28.1631 18.9485 27.2603 19.6495 26.751L30.8245 18.6319Z" fill="url(#paint2_linear_2117_46043)"/>
<path d="M33.4695 18.2274C32.5933 17.5908 31.4068 17.5908 30.5306 18.2274L19.3556 26.3465C18.4794 26.9831 18.1127 28.1116 18.4474 29.1416L22.7159 42.2786C23.0506 43.3087 24.0105 44.0061 25.0935 44.0061H38.9066C39.9896 44.0061 40.9495 43.3087 41.2842 42.2786L45.5527 29.1416C45.8874 28.1116 45.5207 26.9831 44.6445 26.3465L33.4695 18.2274Z" stroke="#E86A00" stroke-opacity="0.06"/>
</g>
<mask id="mask3_2117_46043" style="mask-type:luminance" maskUnits="userSpaceOnUse" x="18" y="18" width="28" height="26">
<path fill-rule="evenodd" clip-rule="evenodd" d="M30.8245 18.6319C31.5255 18.1226 32.4746 18.1226 33.1756 18.6319L44.3506 26.751C45.0516 27.2603 45.3449 28.1631 45.0772 28.9871L40.8087 42.1241C40.5409 42.9482 39.773 43.5061 38.9066 43.5061H25.0935C24.2271 43.5061 23.4592 42.9482 23.1914 42.1241L18.9229 28.9871C18.6552 28.1631 18.9485 27.2603 19.6495 26.751L30.8245 18.6319Z" fill="white"/>
</mask>
<g mask="url(#mask3_2117_46043)">
<path fill-rule="evenodd" clip-rule="evenodd" d="M32.0001 32.0001L17.7778 35.5556V28.4445L32.0001 32.0001ZM32.0001 32.0001L35.5556 17.7778H28.4445L32.0001 32.0001ZM32.0001 32.0001L46.2223 28.4445V35.5556L32.0001 32.0001ZM32.0001 32.0001L39.5425 19.4293L44.5708 24.4576L32.0001 32.0001ZM32.0001 32.0001L39.5425 44.5708L44.5708 39.5425L32.0001 32.0001ZM32.0001 32.0001L28.4445 46.2223H35.5556L32.0001 32.0001ZM32.0001 32.0001L24.4576 44.5708L19.4293 39.5425L32.0001 32.0001Z" fill="url(#paint3_linear_2117_46043)"/>
<path d="M24.4576 19.4293L19.4293 24.4576L32.0001 32.0001L24.4576 19.4293Z" fill="url(#paint4_linear_2117_46043)"/>
<path d="M29.787 19.9351C29.1699 20.3834 28.6934 20.7296 28.3574 20.9737" stroke="white" stroke-linecap="round"/>
</g>
<g filter="url(#filter2_d_2117_46043)">
<path d="M29.7334 28.8801L32.0003 25.5725L34.2671 28.8801L38.1133 30.0139L35.6681 33.1919L35.7783 37.2002L32.0003 35.8567L28.2222 37.2002L28.3324 33.1919L25.8872 30.0139L29.7334 28.8801Z" fill="white"/>
<path d="M32.8251 25.0072C32.6387 24.7351 32.3301 24.5725 32.0003 24.5725C31.6704 24.5725 31.3618 24.7351 31.1754 25.0072L29.1096 28.0215L25.6045 29.0547C25.2881 29.148 25.0381 29.3912 24.9362 29.7049C24.8342 30.0186 24.8935 30.3623 25.0947 30.6237L27.323 33.5199L27.2226 37.1727C27.2135 37.5024 27.3676 37.8154 27.6344 38.0092C27.9012 38.2031 28.2465 38.2529 28.5572 38.1424L32.0003 36.9181L35.4433 38.1424C35.754 38.2529 36.0993 38.2031 36.3661 38.0092C36.6329 37.8154 36.787 37.5024 36.7779 37.1727L36.6775 33.5199L38.9059 30.6237C39.107 30.3623 39.1663 30.0186 39.0644 29.7049C38.9624 29.3912 38.7124 29.148 38.3961 29.0547L34.8909 28.0215L32.8251 25.0072Z" stroke="white" stroke-width="2" stroke-linejoin="round"/>
</g>
<g filter="url(#filter3_i_2117_46043)">
<path d="M29.7334 28.8801L32.0003 25.5725L34.2671 28.8801L38.1133 30.0139L35.6681 33.1919L35.7783 37.2002L32.0003 35.8567L28.2222 37.2002L28.3324 33.1919L25.8872 30.0139L29.7334 28.8801Z" fill="url(#paint5_linear_2117_46043)"/>
</g>
<path d="M18.528 83V73.48H20.138V83H18.528ZM15.336 74.67V73.2H23.33V74.67H15.336ZM25.8656 83.14C25.2123 83.14 24.6196 82.986 24.0876 82.678C23.5556 82.3607 23.131 81.936 22.8136 81.404C22.5056 80.872 22.3516 80.2793 22.3516 79.626C22.3516 78.9727 22.5056 78.3847 22.8136 77.862C23.131 77.3393 23.5556 76.924 24.0876 76.616C24.6196 76.2987 25.2123 76.14 25.8656 76.14C26.5283 76.14 27.1256 76.294 27.6576 76.602C28.1896 76.91 28.6096 77.33 28.9176 77.862C29.235 78.3847 29.3936 78.9727 29.3936 79.626C29.3936 80.2793 29.235 80.872 28.9176 81.404C28.6096 81.936 28.1896 82.3607 27.6576 82.678C27.1256 82.986 26.5283 83.14 25.8656 83.14ZM25.8656 81.656C26.2483 81.656 26.5843 81.572 26.8736 81.404C27.1723 81.2267 27.401 80.984 27.5596 80.676C27.7276 80.368 27.8116 80.018 27.8116 79.626C27.8116 79.234 27.7276 78.8887 27.5596 78.59C27.3916 78.2913 27.163 78.058 26.8736 77.89C26.5843 77.7127 26.2483 77.624 25.8656 77.624C25.4923 77.624 25.1563 77.7127 24.8576 77.89C24.5683 78.058 24.3396 78.2913 24.1716 78.59C24.013 78.8887 23.9336 79.234 23.9336 79.626C23.9336 80.018 24.013 80.368 24.1716 80.676C24.3396 80.984 24.5683 81.2267 24.8576 81.404C25.1563 81.572 25.4923 81.656 25.8656 81.656ZM34.2723 83.14C33.759 83.14 33.3016 83.0327 32.9003 82.818C32.499 82.594 32.1816 82.2907 31.9483 81.908C31.7243 81.5253 31.6123 81.0913 31.6123 80.606V78.674C31.6123 78.1887 31.729 77.7547 31.9623 77.372C32.1956 76.9893 32.513 76.6907 32.9143 76.476C33.3156 76.252 33.7683 76.14 34.2723 76.14C34.879 76.14 35.425 76.2987 35.9103 76.616C36.405 76.924 36.7923 77.344 37.0723 77.876C37.3616 78.3987 37.5063 78.9913 37.5063 79.654C37.5063 80.3073 37.3616 80.9 37.0723 81.432C36.7923 81.9547 36.405 82.37 35.9103 82.678C35.425 82.986 34.879 83.14 34.2723 83.14ZM30.6743 85.8V76.28H32.2143V78.086L31.9483 79.724L32.2143 81.348V85.8H30.6743ZM34.0203 81.684C34.3936 81.684 34.7203 81.6 35.0003 81.432C35.2896 81.2547 35.5136 81.012 35.6723 80.704C35.8403 80.396 35.9243 80.0413 35.9243 79.64C35.9243 79.2387 35.8403 78.884 35.6723 78.576C35.5136 78.268 35.2896 78.03 35.0003 77.862C34.7203 77.6847 34.3936 77.596 34.0203 77.596C33.647 77.596 33.3156 77.6847 33.0263 77.862C32.737 78.03 32.513 78.268 32.3543 78.576C32.1956 78.884 32.1163 79.2387 32.1163 79.64C32.1163 80.0413 32.1956 80.396 32.3543 80.704C32.513 81.012 32.737 81.2547 33.0263 81.432C33.3156 81.6 33.647 81.684 34.0203 81.684ZM44.1881 83.14C43.5348 83.14 42.9421 83.0233 42.4101 82.79C41.8875 82.5473 41.4441 82.1973 41.0801 81.74L42.1721 80.648C42.3681 80.9467 42.6435 81.1847 42.9981 81.362C43.3528 81.5393 43.7401 81.628 44.1601 81.628C44.5615 81.628 44.9068 81.5533 45.1961 81.404C45.4855 81.2547 45.7095 81.0447 45.8681 80.774C46.0361 80.5033 46.1201 80.1907 46.1201 79.836C46.1201 79.4627 46.0361 79.1453 45.8681 78.884C45.7095 78.6227 45.4761 78.422 45.1681 78.282C44.8695 78.1327 44.5055 78.058 44.0761 78.058C43.9081 78.058 43.7355 78.072 43.5581 78.1C43.3808 78.1187 43.2221 78.1513 43.0821 78.198L43.7961 77.274C43.9921 77.1993 44.1975 77.1387 44.4121 77.092C44.6361 77.036 44.8508 77.008 45.0561 77.008C45.5601 77.008 46.0128 77.1293 46.4141 77.372C46.8248 77.6147 47.1468 77.9553 47.3801 78.394C47.6228 78.8233 47.7441 79.332 47.7441 79.92C47.7441 80.5547 47.5948 81.1147 47.2961 81.6C46.9975 82.0853 46.5821 82.4633 46.0501 82.734C45.5181 83.0047 44.8975 83.14 44.1881 83.14ZM43.0821 78.198V77.246L45.7001 74.194L47.6321 74.152L44.9021 77.288L43.0821 78.198ZM41.5701 74.642V73.2H47.6321V74.152L46.2461 74.642H41.5701Z" fill="#646464"/>
<defs>
<filter id="filter0_d_2117_46043" x="22.8887" y="32" width="18.2222" height="33.5601" filterUnits="userSpaceOnUse" color-interpolation-filters="sRGB">
<feFlood flood-opacity="0" result="BackgroundImageFix"/>
<feColorMatrix in="SourceAlpha" type="matrix" values="0 0 0 0 0 0 0 0 0 0 0 0 0 0 0 0 0 0 127 0" result="hardAlpha"/>
<feOffset dy="2"/>
<feGaussianBlur stdDeviation="1"/>
<feColorMatrix type="matrix" values="0 0 0 0 0.333333 0 0 0 0 0.819608 0 0 0 0 0.615686 0 0 0 0.2 0"/>
<feBlend mode="darken" in2="BackgroundImageFix" result="effect1_dropShadow_2117_46043"/>
<feBlend mode="normal" in="SourceGraphic" in2="effect1_dropShadow_2117_46043" result="shape"/>
</filter>
<filter id="filter1_d_2117_46043" x="15.8247" y="16.25" width="32.3506" height="31.2561" filterUnits="userSpaceOnUse" color-interpolation-filters="sRGB">
<feFlood flood-opacity="0" result="BackgroundImageFix"/>
<feColorMatrix in="SourceAlpha" type="matrix" values="0 0 0 0 0 0 0 0 0 0 0 0 0 0 0 0 0 0 127 0" result="hardAlpha"/>
<feOffset dy="1"/>
<feGaussianBlur stdDeviation="1"/>
<feColorMatrix type="matrix" values="0 0 0 0 0.95 0 0 0 0 0.442079 0 0 0 0 0 0 0 0 0.8 0"/>
<feBlend mode="normal" in2="BackgroundImageFix" result="effect1_dropShadow_2117_46043"/>
<feBlend mode="normal" in="SourceGraphic" in2="effect1_dropShadow_2117_46043" result="shape"/>
</filter>
<filter id="filter2_d_2117_46043" x="21.8872" y="22.5725" width="20.2261" height="19.6277" filterUnits="userSpaceOnUse" color-interpolation-filters="sRGB">
<feFlood flood-opacity="0" result="BackgroundImageFix"/>
<feColorMatrix in="SourceAlpha" type="matrix" values="0 0 0 0 0 0 0 0 0 0 0 0 0 0 0 0 0 0 127 0" result="hardAlpha"/>
<feOffset dy="1"/>
<feGaussianBlur stdDeviation="1"/>
<feColorMatrix type="matrix" values="0 0 0 0 0.643137 0 0 0 0 0.262856 0 0 0 0 0.0196078 0 0 0 0.2 0"/>
<feBlend mode="normal" in2="BackgroundImageFix" result="effect1_dropShadow_2117_46043"/>
<feBlend mode="normal" in="SourceGraphic" in2="effect1_dropShadow_2117_46043" result="shape"/>
</filter>
<filter id="filter3_i_2117_46043" x="25.8872" y="25.5725" width="12.2261" height="12.6277" filterUnits="userSpaceOnUse" color-interpolation-filters="sRGB">
<feFlood flood-opacity="0" result="BackgroundImageFix"/>
<feBlend mode="normal" in="SourceGraphic" in2="BackgroundImageFix" result="shape"/>
<feColorMatrix in="SourceAlpha" type="matrix" values="0 0 0 0 0 0 0 0 0 0 0 0 0 0 0 0 0 0 127 0" result="hardAlpha"/>
<feOffset dy="1"/>
<feGaussianBlur stdDeviation="0.5"/>
<feComposite in2="hardAlpha" operator="arithmetic" k2="-1" k3="1"/>
<feColorMatrix type="matrix" values="0 0 0 0 0.921569 0 0 0 0 0.447059 0 0 0 0 0.105882 0 0 0 0.4 0"/>
<feBlend mode="normal" in2="shape" result="effect1_innerShadow_2117_46043"/>
</filter>
<linearGradient id="paint0_linear_2117_46043" x1="8" y1="8" x2="8" y2="64" gradientUnits="userSpaceOnUse">
<stop stop-color="#FFDD72"/>
<stop offset="1" stop-color="#FFC32B"/>
</linearGradient>
<linearGradient id="paint1_linear_2117_46043" x1="11.5557" y1="11.5557" x2="11.5557" y2="52.4445" gradientUnits="userSpaceOnUse">
<stop stop-color="#FD9C43"/>
<stop offset="1" stop-color="#F27E1D"/>
</linearGradient>
<linearGradient id="paint2_linear_2117_46043" x1="17.7778" y1="17.7778" x2="17.7778" y2="46.2223" gradientUnits="userSpaceOnUse">
<stop stop-color="#FFD17B"/>
<stop offset="1" stop-color="#FBA152"/>
</linearGradient>
<linearGradient id="paint3_linear_2117_46043" x1="19.1046" y1="17.7778" x2="19.1046" y2="43.5688" gradientUnits="userSpaceOnUse">
<stop stop-color="#F58425" stop-opacity="0.2"/>
<stop offset="1" stop-color="#F58425" stop-opacity="0.01"/>
</linearGradient>
<linearGradient id="paint4_linear_2117_46043" x1="19.1046" y1="17.7778" x2="19.1046" y2="43.5688" gradientUnits="userSpaceOnUse">
<stop stop-color="#F58425" stop-opacity="0.2"/>
<stop offset="1" stop-color="#F58425" stop-opacity="0.01"/>
</linearGradient>
<linearGradient id="paint5_linear_2117_46043" x1="25.8872" y1="25.5725" x2="25.8872" y2="37.2002" gradientUnits="userSpaceOnUse">
<stop stop-color="#FD9B41"/>
<stop offset="1" stop-color="#F48224"/>
</linearGradient>
</defs>
</svg>
