<svg width="64" height="88" viewBox="0 0 64 88" fill="none" xmlns="http://www.w3.org/2000/svg">
<g filter="url(#filter0_d_2117_46105)">
<path fill-rule="evenodd" clip-rule="evenodd" d="M17.7778 29.3333H32.0001V56.1597C32.0001 56.903 31.2177 57.3865 30.5528 57.0541L24.8889 54.2221L19.225 57.0541C18.5601 57.3865 17.7778 56.903 17.7778 56.1597V29.3333Z" fill="#7F45F6"/>
</g>
<g filter="url(#filter1_d_2117_46105)">
<path fill-rule="evenodd" clip-rule="evenodd" d="M21.3335 32H35.5557V58.8264C35.5557 59.5698 34.7734 60.0533 34.1085 59.7208L28.4446 56.8889L22.7807 59.7208C22.1158 60.0533 21.3335 59.5698 21.3335 58.8264V32Z" fill="#50E2C2"/>
</g>
<g filter="url(#filter2_d_2117_46105)">
<path fill-rule="evenodd" clip-rule="evenodd" d="M32 29.3333H46.2222V56.1597C46.2222 56.903 45.4399 57.3865 44.775 57.0541L39.1111 54.2221L33.4472 57.0541C32.7823 57.3865 32 56.903 32 56.1597V29.3333Z" fill="#7F45F6"/>
</g>
<g filter="url(#filter3_d_2117_46105)">
<path fill-rule="evenodd" clip-rule="evenodd" d="M28.4443 32H42.6666V58.8264C42.6666 59.5698 41.8842 60.0533 41.2193 59.7208L35.5554 56.8889L29.8915 59.7208C29.2266 60.0533 28.4443 59.5698 28.4443 58.8264V32Z" fill="#50E2C2"/>
</g>
<g filter="url(#filter4_d_2117_46105)">
<path fill-rule="evenodd" clip-rule="evenodd" d="M24.8892 33.7776H39.1114V60.604C39.1114 61.3474 38.3291 61.8309 37.6642 61.4984L32.0003 58.6665L26.3364 61.4984C25.6715 61.8309 24.8892 61.3474 24.8892 60.604V33.7776Z" fill="white"/>
</g>
<mask id="mask0_2117_46105" style="mask-type:luminance" maskUnits="userSpaceOnUse" x="24" y="33" width="16" height="29">
<path fill-rule="evenodd" clip-rule="evenodd" d="M24.8892 33.7776H39.1114V60.604C39.1114 61.3474 38.3291 61.8309 37.6642 61.4984L32.0003 58.6665L26.3364 61.4984C25.6715 61.8309 24.8892 61.3474 24.8892 60.604V33.7776Z" fill="white"/>
</mask>
<g mask="url(#mask0_2117_46105)">
<rect x="28.4448" y="33.7776" width="7.11111" height="28.4444" fill="#F55462"/>
</g>
<path style="mix-blend-mode:multiply" opacity="0.1" fill-rule="evenodd" clip-rule="evenodd" d="M29.9998 15.8224C31.2374 15.1079 32.7622 15.1079 33.9998 15.8224L47.7052 23.7352C48.9429 24.4498 49.7052 25.7703 49.7052 27.1994V43.025C49.7052 44.4541 48.9429 45.7746 47.7052 46.4891L33.9998 54.4019C32.7622 55.1164 31.2374 55.1164 29.9998 54.4019L16.2944 46.4891C15.0568 45.7746 14.2944 44.4541 14.2944 43.025L14.2944 27.1993C14.2944 25.7703 15.0568 24.4498 16.2944 23.7352L29.9998 15.8224Z" fill="black"/>
<path fill-rule="evenodd" clip-rule="evenodd" d="M22.0594 34.7767L17.615 32.9989V32.11L13.2718 30.3004C12.8387 30.1199 12.3754 30.484 12.4483 30.9475L13.0439 34.7338C13.0967 35.0695 13.3165 35.3555 13.6274 35.493L22.0594 39.2212V34.7767Z" fill="url(#paint0_linear_2117_46105)" stroke="url(#paint1_linear_2117_46105)" stroke-linecap="round" stroke-linejoin="round"/>
<path fill-rule="evenodd" clip-rule="evenodd" d="M20.2816 30.3321L15.8372 28.5544V27.6655L11.494 25.8558C11.0609 25.6754 10.5976 26.0394 10.6705 26.5029L11.266 30.2892C11.3189 30.625 11.5386 30.9109 11.8495 31.0484L20.2816 34.7766V30.3321Z" fill="url(#paint2_linear_2117_46105)" stroke="url(#paint3_linear_2117_46105)" stroke-linecap="round" stroke-linejoin="round"/>
<path fill-rule="evenodd" clip-rule="evenodd" d="M18.5038 25.8878L14.0593 24.11V23.2211L9.71616 21.4115C9.28308 21.231 8.81977 21.5951 8.89267 22.0585L9.48822 25.8448C9.54103 26.1806 9.76081 26.4666 10.0717 26.6041L18.5038 30.3322V25.8878Z" fill="url(#paint4_linear_2117_46105)" stroke="url(#paint5_linear_2117_46105)" stroke-linecap="round" stroke-linejoin="round"/>
<path fill-rule="evenodd" clip-rule="evenodd" d="M16.726 21.4433L12.2816 19.6656V18.7767L7.93839 16.967C7.50532 16.7866 7.04201 17.1506 7.11491 17.6141L7.71046 21.4004C7.76327 21.7362 7.98305 22.0221 8.29393 22.1596L16.726 25.8878V21.4433Z" fill="url(#paint6_linear_2117_46105)" stroke="url(#paint7_linear_2117_46105)" stroke-linecap="round" stroke-linejoin="round"/>
<mask id="mask1_2117_46105" style="mask-type:luminance" maskUnits="userSpaceOnUse" x="6" y="16" width="17" height="23">
<path fill-rule="evenodd" clip-rule="evenodd" d="M9.0761 23.2249C9.00027 22.7429 8.68476 22.3323 8.23844 22.135C7.9621 22.0128 7.76675 21.7586 7.7198 21.4601L7.09632 17.4962C7.08101 17.3989 7.09297 17.2992 7.13087 17.2082C7.24416 16.9363 7.55641 16.8078 7.82831 16.921L11.8744 18.6069C12.1209 18.7096 12.2815 18.9505 12.2815 19.2176C12.2815 19.4881 12.4462 19.7313 12.6973 19.8318L15.4687 20.9403C16.228 21.2441 16.7259 21.9795 16.7259 22.7973V24.2192C16.7259 24.7974 17.078 25.3174 17.6148 25.5321C18.1517 25.7468 18.5037 26.2668 18.5037 26.845V28.6636C18.5037 29.2418 18.8558 29.7618 19.3926 29.9765C19.9295 30.1913 20.2815 30.7113 20.2815 31.2895V33.1081C20.2815 33.6863 20.6335 34.2062 21.1704 34.421C21.7073 34.6357 22.0593 35.1557 22.0593 35.7339V36.1499C22.0593 37.5956 20.5727 38.5637 19.2505 37.9791L13.5718 35.4683C13.2954 35.3461 13.1001 35.0919 13.0531 34.7935L12.6317 32.1138C12.5558 31.6317 12.2403 31.2212 11.794 31.0239C11.5177 30.9017 11.3223 30.6475 11.2754 30.349L10.8539 27.6694C10.7781 27.1873 10.4625 26.7768 10.0162 26.5794C9.73988 26.4572 9.54452 26.203 9.49758 25.9046L9.0761 23.2249Z" fill="white" stroke="white"/>
</mask>
<g mask="url(#mask1_2117_46105)">
<g opacity="0.1">
<path fill-rule="evenodd" clip-rule="evenodd" d="M28.999 11.4607C30.8554 10.3889 33.1426 10.3889 34.999 11.4607L48.2866 19.1323C50.143 20.2041 51.2866 22.1849 51.2866 24.3285V39.6716C51.2866 41.8152 50.143 43.796 48.2866 44.8678L34.999 52.5394C33.1426 53.6112 30.8554 53.6112 28.999 52.5394L15.7114 44.8678C13.855 43.796 12.7114 41.8152 12.7114 39.6716L12.7114 24.3285C12.7114 22.1849 13.855 20.2041 15.7114 19.1323L28.999 11.4607Z" fill="black" style="mix-blend-mode:multiply"/>
</g>
</g>
<path fill-rule="evenodd" clip-rule="evenodd" d="M41.941 34.7767L46.3855 32.9989V32.11L50.7287 30.3004C51.1617 30.1199 51.6251 30.484 51.5522 30.9475L50.9566 34.7338C50.9038 35.0695 50.684 35.3555 50.3731 35.493L41.941 39.2212V34.7767Z" fill="url(#paint8_linear_2117_46105)" stroke="url(#paint9_linear_2117_46105)" stroke-linecap="round" stroke-linejoin="round"/>
<path fill-rule="evenodd" clip-rule="evenodd" d="M43.7189 30.3324L48.1633 28.5546V27.6657L52.5065 25.856C52.9396 25.6756 53.4029 26.0397 53.33 26.5031L52.7344 30.2894C52.6816 30.6252 52.4619 30.9112 52.151 31.0486L43.7189 34.7768V30.3324Z" fill="url(#paint10_linear_2117_46105)" stroke="url(#paint11_linear_2117_46105)" stroke-linecap="round" stroke-linejoin="round"/>
<path fill-rule="evenodd" clip-rule="evenodd" d="M45.4967 25.8878L49.9412 24.11V23.2211L54.2843 21.4115C54.7174 21.231 55.1807 21.5951 55.1078 22.0585L54.5123 25.8448C54.4595 26.1806 54.2397 26.4666 53.9288 26.6041L45.4967 30.3322V25.8878Z" fill="url(#paint12_linear_2117_46105)" stroke="url(#paint13_linear_2117_46105)" stroke-linecap="round" stroke-linejoin="round"/>
<path fill-rule="evenodd" clip-rule="evenodd" d="M47.2745 21.4435L51.719 19.6657V18.7768L56.0622 16.9671C56.4952 16.7867 56.9585 17.1507 56.8856 17.6142L56.2901 21.4005C56.2373 21.7363 56.0175 22.0223 55.7066 22.1597L47.2745 25.8879V21.4435Z" fill="url(#paint14_linear_2117_46105)" stroke="url(#paint15_linear_2117_46105)" stroke-linecap="round" stroke-linejoin="round"/>
<mask id="mask2_2117_46105" style="mask-type:luminance" maskUnits="userSpaceOnUse" x="41" y="16" width="17" height="23">
<path fill-rule="evenodd" clip-rule="evenodd" d="M54.9244 23.2252C55.0002 22.7431 55.3157 22.3326 55.762 22.1352C56.0384 22.013 56.2337 21.7588 56.2807 21.4604L56.9042 17.4965C56.9195 17.3991 56.9075 17.2994 56.8696 17.2085C56.7563 16.9366 56.4441 16.808 56.1722 16.9213L52.1261 18.6072C51.8796 18.7099 51.719 18.9507 51.719 19.2178C51.719 19.4883 51.5543 19.7316 51.3031 19.832L48.5318 20.9406C47.7724 21.2443 47.2745 21.9797 47.2745 22.7975V24.2194C47.2745 24.7976 46.9225 25.3176 46.3856 25.5323C45.8488 25.7471 45.4968 26.2671 45.4968 26.8453V28.6639C45.4968 29.2421 45.1447 29.762 44.6079 29.9768C44.071 30.1915 43.719 30.7115 43.719 31.2897V33.1083C43.719 33.6865 43.367 34.2065 42.8301 34.4212C42.2932 34.636 41.9412 35.1559 41.9412 35.7342V36.1502C41.9412 37.5958 43.4278 38.564 44.75 37.9794L50.4287 35.4686C50.7051 35.3464 50.9004 35.0922 50.9474 34.7937L51.3688 32.1141C51.4447 31.632 51.7602 31.2214 52.2065 31.0241C52.4828 30.9019 52.6782 30.6477 52.7251 30.3493L53.1466 27.6696C53.2224 27.1875 53.5379 26.777 53.9843 26.5797C54.2606 26.4575 54.456 26.2033 54.5029 25.9048L54.9244 23.2252Z" fill="white" stroke="white"/>
</mask>
<g mask="url(#mask2_2117_46105)">
<g opacity="0.1">
<path fill-rule="evenodd" clip-rule="evenodd" d="M34.999 11.4607C33.1426 10.3889 30.8554 10.3889 28.999 11.4607L15.7115 19.1323C13.8551 20.2041 12.7115 22.1849 12.7115 24.3285V39.6716C12.7115 41.8152 13.8551 43.796 15.7115 44.8678L28.999 52.5394C30.8554 53.6112 33.1426 53.6112 34.999 52.5394L48.2866 44.8678C50.143 43.796 51.2866 41.8152 51.2866 39.6716L51.2866 24.3285C51.2866 22.1849 50.143 20.2041 48.2866 19.1323L34.999 11.4607Z" fill="black" style="mix-blend-mode:multiply"/>
</g>
</g>
<path fill-rule="evenodd" clip-rule="evenodd" d="M16.0001 37.3335L12.9185 38.8743C12.6221 39.0225 12.4183 39.308 12.3745 39.6365L11.7159 44.5762C11.6503 45.0685 12.1771 45.4229 12.6083 45.1764L17.7779 42.2224L16.0001 37.3335Z" fill="url(#paint16_linear_2117_46105)" stroke="url(#paint17_linear_2117_46105)" stroke-linecap="round" stroke-linejoin="round"/>
<path fill-rule="evenodd" clip-rule="evenodd" d="M47.9999 37.3335L51.0815 38.8743C51.3779 39.0225 51.5817 39.308 51.6255 39.6365L52.2841 44.5762C52.3497 45.0685 51.8229 45.4229 51.3917 45.1764L46.2221 42.2224L47.9999 37.3335Z" fill="url(#paint18_linear_2117_46105)" stroke="url(#paint19_linear_2117_46105)" stroke-linecap="round" stroke-linejoin="round"/>
<path d="M38.9198 14.1088C39.3677 14.3614 39.1884 15.0444 38.6742 15.0444H25.3268C24.8122 15.0444 24.6332 14.3607 25.0817 14.1085L31.7653 10.3509C31.9176 10.2652 32.1037 10.2654 32.2559 10.3512L38.9198 14.1088Z" fill="url(#paint20_linear_2117_46105)" stroke="url(#paint21_linear_2117_46105)" stroke-linecap="round" stroke-linejoin="round"/>
<g filter="url(#filter5_i_2117_46105)">
<path fill-rule="evenodd" clip-rule="evenodd" d="M48 44.4073C48 44.7645 47.8094 45.0947 47.5 45.2733L35 52.4902C33.1436 53.562 30.8564 53.562 29 52.4902L16.5 45.2733C16.1906 45.0947 16 44.7645 16 44.4073V41.1965C16 40.4257 16.8353 39.9447 17.502 40.3316L29.1888 47.115C30.9271 48.124 33.0729 48.124 34.8112 47.115L46.498 40.3316C47.1647 39.9447 48 40.4257 48 41.1965V44.4073Z" fill="url(#paint22_linear_2117_46105)"/>
</g>
<path d="M47.5 44.4073C47.5 44.5859 47.4047 44.751 47.25 44.8403L34.75 52.0572C33.0483 53.0396 30.9517 53.0396 29.25 52.0572L16.75 44.8403L16.5 45.2733L16.75 44.8403C16.5953 44.751 16.5 44.5859 16.5 44.4073V41.1965C16.5 40.8111 16.9177 40.5706 17.251 40.7641L28.9378 47.5474C30.8313 48.6465 33.1686 48.6465 35.0622 47.5474L46.749 40.7641C47.0823 40.5706 47.5 40.8111 47.5 41.1965V44.4073Z" stroke="url(#paint23_linear_2117_46105)" stroke-linecap="round" stroke-linejoin="round"/>
<mask id="path-26-inside-1_2117_46105" fill="white">
<path fill-rule="evenodd" clip-rule="evenodd" d="M28.1004 17.1104C28.2806 16.9548 28.3992 16.74 28.4352 16.5052C28.4428 16.4554 28.4468 16.4048 28.4468 16.3536V13.2963C28.4468 13.295 28.4468 13.2937 28.4468 13.2923V11.3021C28.4468 10.3128 27.1636 9.92421 26.6148 10.7474L24.5671 13.8181L18.274 17.4883C17.9668 17.6675 17.7778 17.9964 17.7778 18.3521V22.1316C17.7778 22.9303 18.6679 23.4067 19.3325 22.9637L21.9383 21.2268L28.0014 17.1857L28.0014 17.1857C28.0362 17.1625 28.0692 17.1373 28.1004 17.1104Z"/>
</mask>
<path fill-rule="evenodd" clip-rule="evenodd" d="M28.1004 17.1104C28.2806 16.9548 28.3992 16.74 28.4352 16.5052C28.4428 16.4554 28.4468 16.4048 28.4468 16.3536V13.2963C28.4468 13.295 28.4468 13.2937 28.4468 13.2923V11.3021C28.4468 10.3128 27.1636 9.92421 26.6148 10.7474L24.5671 13.8181L18.274 17.4883C17.9668 17.6675 17.7778 17.9964 17.7778 18.3521V22.1316C17.7778 22.9303 18.6679 23.4067 19.3325 22.9637L21.9383 21.2268L28.0014 17.1857L28.0014 17.1857C28.0362 17.1625 28.0692 17.1373 28.1004 17.1104Z" fill="url(#paint24_linear_2117_46105)"/>
<path d="M28.4352 16.5052L27.4468 16.3537L27.4468 16.3537L28.4352 16.5052ZM28.1004 17.1104L28.754 17.8673L28.754 17.8673L28.1004 17.1104ZM28.4468 13.2923H27.4467L27.4468 13.2959L28.4468 13.2923ZM26.6148 10.7474L25.7828 10.1926V10.1926L26.6148 10.7474ZM24.5671 13.8181L25.0709 14.6819C25.2024 14.6053 25.3147 14.4996 25.3991 14.3729L24.5671 13.8181ZM18.274 17.4883L18.7778 18.3521L18.7778 18.3521L18.274 17.4883ZM19.3325 22.9637L19.8871 23.7959H19.8871L19.3325 22.9637ZM21.9383 21.2268L21.3837 20.3947H21.3837L21.9383 21.2268ZM28.0014 17.1857L27.6006 16.2695C27.5469 16.293 27.4955 16.3211 27.4468 16.3536L28.0014 17.1857ZM28.0014 17.1857L28.4022 18.1018C28.4558 18.0784 28.5073 18.0503 28.556 18.0178L28.0014 17.1857ZM27.4468 16.3537L27.4468 16.3535L28.754 17.8673C29.1145 17.556 29.3516 17.1264 29.4237 16.6568L27.4468 16.3537ZM27.4468 16.3536L27.4468 16.3537L29.4237 16.6568C29.4389 16.5573 29.4468 16.4559 29.4468 16.3536H27.4468ZM27.4468 13.2963V16.3536H29.4468V13.2963H27.4468ZM27.4468 13.2959L27.4468 13.2963H29.4468C29.4468 13.2936 29.4468 13.291 29.4467 13.2888L27.4468 13.2959ZM27.4468 11.3021V13.2923H29.4468V11.3021H27.4468ZM27.4468 11.3021L27.4468 11.3021H29.4468C29.4468 9.32341 26.8805 8.5463 25.7828 10.1926L27.4468 11.3021ZM25.3991 14.3729L27.4468 11.3021L25.7828 10.1926L23.7351 13.2633L25.3991 14.3729ZM18.7778 18.3521L25.0709 14.6819L24.0634 12.9543L17.7702 16.6245L18.7778 18.3521ZM18.7778 18.3521L18.7778 18.3521L17.7703 16.6245C17.1557 16.9829 16.7778 17.6407 16.7778 18.3521H18.7778ZM18.7778 22.1316V18.3521H16.7778V22.1316H18.7778ZM18.7778 22.1316L18.7778 22.1316H16.7778C16.7778 23.7289 18.5579 24.6817 19.8871 23.7959L18.7778 22.1316ZM21.3837 20.3947L18.7778 22.1316L19.8871 23.7959L22.493 22.059L21.3837 20.3947ZM27.4468 16.3536L21.3837 20.3947L22.493 22.059L28.556 18.0178L27.4468 16.3536ZM27.6006 16.2695L27.6006 16.2695L28.4022 18.1018L28.4022 18.1018L27.6006 16.2695ZM27.4468 16.3535L27.4468 16.3536L28.556 18.0178C28.6255 17.9715 28.6916 17.9212 28.754 17.8673L27.4468 16.3535Z" fill="url(#paint25_linear_2117_46105)" mask="url(#path-26-inside-1_2117_46105)"/>
<mask id="path-28-inside-2_2117_46105" fill="white">
<path fill-rule="evenodd" clip-rule="evenodd" d="M35.5557 13.2922C35.5557 13.2936 35.5557 13.295 35.5557 13.2963V16.3536C35.5557 16.688 35.7228 17.0002 36.001 17.1857L36.0011 17.1857L42.0641 21.2268L44.67 22.9637C45.3345 23.4067 46.2246 22.9303 46.2246 22.1316V18.3521C46.2246 17.9964 46.0356 17.6675 45.7284 17.4883L39.4353 13.8181L37.3877 10.7474C36.8388 9.92421 35.5557 10.3128 35.5557 11.3021V13.2922Z"/>
</mask>
<path fill-rule="evenodd" clip-rule="evenodd" d="M35.5557 13.2922C35.5557 13.2936 35.5557 13.295 35.5557 13.2963V16.3536C35.5557 16.688 35.7228 17.0002 36.001 17.1857L36.0011 17.1857L42.0641 21.2268L44.67 22.9637C45.3345 23.4067 46.2246 22.9303 46.2246 22.1316V18.3521C46.2246 17.9964 46.0356 17.6675 45.7284 17.4883L39.4353 13.8181L37.3877 10.7474C36.8388 9.92421 35.5557 10.3128 35.5557 11.3021V13.2922Z" fill="url(#paint26_linear_2117_46105)"/>
<path d="M35.5557 13.2922L36.5557 13.2961V13.2922H35.5557ZM36.001 17.1857L35.4464 18.0178C35.5026 18.0552 35.5625 18.0869 35.625 18.1123L36.001 17.1857ZM36.0011 17.1857L36.5557 16.3536C36.4995 16.3161 36.4396 16.2845 36.3771 16.2591L36.0011 17.1857ZM42.0641 21.2268L42.6187 20.3947H42.6187L42.0641 21.2268ZM44.67 22.9637L44.1154 23.7958L44.67 22.9637ZM45.7284 17.4883L45.2246 18.3521L45.2246 18.3521L45.7284 17.4883ZM39.4353 13.8181L38.6033 14.3729C38.6877 14.4996 38.8 14.6053 38.9315 14.682L39.4353 13.8181ZM37.3877 10.7474L36.5557 11.3021H36.5557L37.3877 10.7474ZM34.5557 13.2884C34.5557 13.291 34.5557 13.2937 34.5557 13.2963H36.5557C36.5557 13.2963 36.5557 13.2962 36.5557 13.2961L34.5557 13.2884ZM34.5557 13.2963V16.3536H36.5557V13.2963H34.5557ZM34.5557 16.3536C34.5557 17.0224 34.8899 17.6469 35.4464 18.0178L36.5557 16.3536L36.5557 16.3536H34.5557ZM35.625 18.1123L35.625 18.1123L36.3771 16.2591L36.3771 16.2591L35.625 18.1123ZM35.4464 18.0178L41.5095 22.059L42.6187 20.3947L36.5557 16.3536L35.4464 18.0178ZM41.5095 22.059L44.1154 23.7958L45.2246 22.1316L42.6187 20.3947L41.5095 22.059ZM44.1154 23.7958C45.4445 24.6817 47.2246 23.7289 47.2246 22.1316H45.2246H45.2246L44.1154 23.7958ZM47.2246 22.1316V18.3521H45.2246V22.1316H47.2246ZM47.2246 18.3521C47.2246 17.6407 46.8467 16.9829 46.2322 16.6245L45.2246 18.3521L45.2246 18.3521H47.2246ZM46.2322 16.6245L39.9391 12.9543L38.9315 14.682L45.2246 18.3521L46.2322 16.6245ZM40.2673 13.2633L38.2197 10.1926L36.5557 11.3021L38.6033 14.3729L40.2673 13.2633ZM38.2197 10.1926C37.1219 8.5463 34.5557 9.32341 34.5557 11.3021H36.5557L36.5557 11.3021L38.2197 10.1926ZM34.5557 11.3021V13.2922H36.5557V11.3021H34.5557Z" fill="url(#paint27_linear_2117_46105)" mask="url(#path-28-inside-2_2117_46105)"/>
<path fill-rule="evenodd" clip-rule="evenodd" d="M30.0001 12.7104C31.2377 11.9958 32.7625 11.9958 34.0001 12.7104L47.7055 20.6232C48.9431 21.3377 49.7055 22.6582 49.7055 24.0873V39.9129C49.7055 41.342 48.9431 42.6625 47.7055 43.377L34.0001 51.2899C32.7625 52.0044 31.2377 52.0044 30.0001 51.2898L16.2947 43.377C15.0571 42.6625 14.2947 41.342 14.2947 39.9129V24.0873C14.2947 22.6582 15.0571 21.3377 16.2947 20.6232L30.0001 12.7104Z" fill="url(#paint28_linear_2117_46105)" stroke="#FFF04D" stroke-opacity="0.4"/>
<mask id="mask3_2117_46105" style="mask-type:luminance" maskUnits="userSpaceOnUse" x="14" y="12" width="36" height="40">
<path fill-rule="evenodd" clip-rule="evenodd" d="M30.0001 12.7104C31.2377 11.9958 32.7625 11.9958 34.0001 12.7104L47.7055 20.6232C48.9431 21.3377 49.7055 22.6582 49.7055 24.0873V39.9129C49.7055 41.342 48.9431 42.6625 47.7055 43.377L34.0001 51.2899C32.7625 52.0044 31.2377 52.0044 30.0001 51.2898L16.2947 43.377C15.0571 42.6625 14.2947 41.342 14.2947 39.9129V24.0873C14.2947 22.6582 15.0571 21.3377 16.2947 20.6232L30.0001 12.7104Z" fill="white"/>
</mask>
<g mask="url(#mask3_2117_46105)">
<g style="mix-blend-mode:multiply" opacity="0.4">
<path d="M32.0003 32L37.3337 10.6667H26.667L32.0003 32L20.6867 13.1439L13.1442 20.6864L32.0003 32L10.667 26.6667V37.3334L32.0003 32L13.1442 43.3138L20.6867 50.8563L32.0003 32L26.667 53.3334H37.3337L32.0003 32L43.314 50.8563L50.8565 43.3138L32.0003 32L53.3337 37.3334V26.6667L32.0003 32L50.8565 20.6864L43.314 13.1439L32.0003 32Z" fill="#FFD640"/>
</g>
<g filter="url(#filter6_di_2117_46105)">
<path fill-rule="evenodd" clip-rule="evenodd" d="M45.9299 22.3898L33.3482 15.1172C32.514 14.6351 31.4862 14.6351 30.6521 15.1172L18.0703 22.3898C17.2362 22.872 16.7223 23.7631 16.7223 24.7275V29.974L15.7433 31.4442C15.5198 31.7799 15.5198 32.217 15.7433 32.5527L16.7223 34.0229V39.2727C16.7223 40.237 17.2362 41.1281 18.0703 41.6103L30.6521 48.8829C31.4862 49.3651 32.514 49.3651 33.3482 48.8829L45.9299 41.6103C46.764 41.1281 47.2779 40.237 47.2779 39.2727V34.0229L48.2569 32.5527C48.4804 32.217 48.4804 31.7799 48.2569 31.4442L47.2779 29.974V24.7275C47.2779 23.7631 46.764 22.872 45.9299 22.3898ZM17.621 34.0229V39.2726C17.621 39.9155 17.9636 40.5096 18.5197 40.831L31.1014 48.1036C31.6575 48.4251 32.3427 48.4251 32.8988 48.1036L45.4805 40.831C46.0366 40.5096 46.3792 39.9155 46.3792 39.2726V34.0229L45.4002 32.5527C45.1767 32.217 45.1767 31.7799 45.4002 31.4442L46.3792 29.974V24.7274C46.3792 24.0845 46.0366 23.4905 45.4805 23.169L32.8988 15.8964C32.3427 15.575 31.6575 15.575 31.1014 15.8964L18.5197 23.169C17.9636 23.4905 17.621 24.0845 17.621 24.7274V29.974L18.6 31.4442C18.8235 31.7799 18.8235 32.217 18.6 32.5527L17.621 34.0229Z" fill="#676763"/>
</g>
<mask id="mask4_2117_46105" style="mask-type:luminance" maskUnits="userSpaceOnUse" x="15" y="14" width="34" height="36">
<path fill-rule="evenodd" clip-rule="evenodd" d="M45.9299 22.3898L33.3482 15.1172C32.514 14.6351 31.4862 14.6351 30.6521 15.1172L18.0703 22.3898C17.2362 22.872 16.7223 23.7631 16.7223 24.7275V29.974L15.7433 31.4442C15.5198 31.7799 15.5198 32.217 15.7433 32.5527L16.7223 34.0229V39.2727C16.7223 40.237 17.2362 41.1281 18.0703 41.6103L30.6521 48.8829C31.4862 49.3651 32.514 49.3651 33.3482 48.8829L45.9299 41.6103C46.764 41.1281 47.2779 40.237 47.2779 39.2727V34.0229L48.2569 32.5527C48.4804 32.217 48.4804 31.7799 48.2569 31.4442L47.2779 29.974V24.7275C47.2779 23.7631 46.764 22.872 45.9299 22.3898ZM17.621 34.0229V39.2726C17.621 39.9155 17.9636 40.5096 18.5197 40.831L31.1014 48.1036C31.6575 48.4251 32.3427 48.4251 32.8988 48.1036L45.4805 40.831C46.0366 40.5096 46.3792 39.9155 46.3792 39.2726V34.0229L45.4002 32.5527C45.1767 32.217 45.1767 31.7799 45.4002 31.4442L46.3792 29.974V24.7274C46.3792 24.0845 46.0366 23.4905 45.4805 23.169L32.8988 15.8964C32.3427 15.575 31.6575 15.575 31.1014 15.8964L18.5197 23.169C17.9636 23.4905 17.621 24.0845 17.621 24.7274V29.974L18.6 31.4442C18.8235 31.7799 18.8235 32.217 18.6 32.5527L17.621 34.0229Z" fill="white"/>
</mask>
<g mask="url(#mask4_2117_46105)">
<g style="mix-blend-mode:multiply" opacity="0.4">
<path fill-rule="evenodd" clip-rule="evenodd" d="M32.0003 32.0001L10.667 26.6667V37.3334L32.0003 32.0001ZM32.0003 32.0001L37.3337 10.6667H26.667L32.0003 32.0001ZM32.0003 32.0001L53.3337 37.3334V26.6667L32.0003 32.0001ZM32.0003 32.0001L43.314 13.1439L50.8565 20.6864L32.0003 32.0001ZM32.0003 32.0001L50.8565 43.3138L43.314 50.8563L32.0003 32.0001ZM32.0003 32.0001L20.6866 50.8563L13.1441 43.3138L32.0003 32.0001ZM32.0003 32.0001L37.3337 53.3334H26.667L32.0003 32.0001Z" fill="#5A5951"/>
<path d="M20.6866 13.1439L13.1441 20.6864L32.0003 32.0001L20.6866 13.1439Z" fill="#5A5951"/>
</g>
</g>
<path d="M33.5558 12.9669C32.5932 12.4111 31.4072 12.4111 30.4447 12.9669L16.2948 21.1363C15.3322 21.692 14.7393 22.7191 14.7393 23.8306L14.7393 40.1694C14.7393 41.2809 15.3322 42.308 16.2948 42.8637L30.4447 51.0331C31.4072 51.5889 32.5932 51.5889 33.5558 51.0331L47.7056 42.8637C48.6682 42.308 49.2612 41.2809 49.2612 40.1694V23.8306C49.2612 22.7191 48.6682 21.692 47.7056 21.1363L33.5558 12.9669Z" stroke="#FAB90A"/>
<path opacity="0.4" d="M33.5557 51.0333C35.2198 50.0725 36.399 49.3917 37.0931 48.991" stroke="white" stroke-linecap="round"/>
<path d="M49.2612 40.1694V23.8306C49.2612 22.7191 48.6682 21.692 47.7056 21.1363L33.5558 12.9669C32.5932 12.4111 31.4072 12.4111 30.4447 12.9669L16.2948 21.1363C15.3322 21.692 14.7393 22.7191 14.7393 23.8306L14.7393 40.1694" stroke="#FAC81C" stroke-linecap="round"/>
<path opacity="0.6" d="M49.2612 23.8306C49.2612 22.7191 48.6682 21.692 47.7056 21.1363L33.5558 12.9669C32.5932 12.4111 31.4072 12.4111 30.4447 12.9669L16.2948 21.1363C15.3322 21.692 14.7393 22.7191 14.7393 23.8306" stroke="#FFE56A" stroke-linecap="round"/>
<path opacity="0.6" d="M33.5557 12.9669C32.5931 12.4111 31.4071 12.4111 30.4446 12.9669C30.4446 12.9669 25.7279 15.69 23.3696 17.0516" stroke="white" stroke-linecap="round"/>
<path d="M30.4447 12.967C30.4447 12.967 27.9485 14.4082 26.9072 15.0094" stroke="white" stroke-linecap="round"/>
</g>
<g filter="url(#filter7_d_2117_46105)">
<path fill-rule="evenodd" clip-rule="evenodd" d="M31.0001 18.3552C31.6189 17.9979 32.3813 17.9979 33.0001 18.3552L43.3169 24.3116C43.9357 24.6689 44.3169 25.3291 44.3169 26.0436V37.9565C44.3169 38.671 43.9357 39.3312 43.3169 39.6885L33.0001 45.6449C32.3813 46.0022 31.6189 46.0022 31.0001 45.6449L20.6832 39.6885C20.0644 39.3312 19.6832 38.671 19.6832 37.9565V26.0436C19.6832 25.3291 20.0644 24.6689 20.6832 24.3116L31.0001 18.3552Z" fill="url(#paint29_linear_2117_46105)"/>
<path d="M33.2501 17.9222C32.4766 17.4756 31.5236 17.4756 30.7501 17.9222L20.4332 23.8786C19.6597 24.3252 19.1832 25.1505 19.1832 26.0436V37.9565C19.1832 38.8496 19.6597 39.6749 20.4332 40.1215L30.7501 46.0779C31.5236 46.5245 32.4765 46.5245 33.2501 46.0779L43.5669 40.1215C44.3404 39.6749 44.8169 38.8496 44.8169 37.9565V26.0436C44.8169 25.1505 44.3404 24.3252 43.5669 23.8786L33.2501 17.9222Z" stroke="#F5900D" stroke-opacity="0.1" style="mix-blend-mode:multiply"/>
</g>
<mask id="mask5_2117_46105" style="mask-type:luminance" maskUnits="userSpaceOnUse" x="19" y="18" width="26" height="28">
<path fill-rule="evenodd" clip-rule="evenodd" d="M31.0001 18.3552C31.6189 17.9979 32.3813 17.9979 33.0001 18.3552L43.3169 24.3116C43.9357 24.6689 44.3169 25.3291 44.3169 26.0436V37.9565C44.3169 38.671 43.9357 39.3312 43.3169 39.6885L33.0001 45.6449C32.3813 46.0022 31.6189 46.0022 31.0001 45.6449L20.6832 39.6885C20.0644 39.3312 19.6832 38.671 19.6832 37.9565V26.0436C19.6832 25.3291 20.0644 24.6689 20.6832 24.3116L31.0001 18.3552Z" fill="white"/>
</mask>
<g mask="url(#mask5_2117_46105)">
<g style="mix-blend-mode:multiply" opacity="0.3">
<path fill-rule="evenodd" clip-rule="evenodd" d="M32.0001 32.0001L17.7778 35.5556V28.4445L32.0001 32.0001ZM32.0001 32.0001L35.5556 17.7778H28.4445L32.0001 32.0001ZM32.0001 32.0001L46.2223 28.4445V35.5556L32.0001 32.0001ZM32.0001 32.0001L39.5425 19.4293L44.5708 24.4576L32.0001 32.0001ZM32.0001 32.0001L39.5425 44.5708L44.5708 39.5425L32.0001 32.0001ZM32.0001 32.0001L28.4445 46.2223H35.5556L32.0001 32.0001ZM32.0001 32.0001L24.4576 44.5708L19.4293 39.5425L32.0001 32.0001Z" fill="#FFD640"/>
<path d="M24.4576 19.4293L19.4293 24.4576L32.0001 32.0001L24.4576 19.4293Z" fill="#FFD640"/>
</g>
<path opacity="0.4" d="M43.206 24.7607L32.667 18.6759C32.2544 18.4378 31.7462 18.4378 31.3336 18.6759C30.0941 19.3916 29.2159 19.8986 28.6989 20.1971C27.6229 20.8183 26.7446 21.3254 26.0641 21.7183C24.8931 22.3944 23.1366 23.4085 20.7946 24.7607" stroke="white" stroke-linecap="round"/>
<path d="M31.3335 18.676C30.094 19.3916 29.2157 19.8987 28.6987 20.1972" stroke="white" stroke-linecap="round"/>
<path opacity="0.4" d="M43.2059 39.2088L32.6668 45.2935C32.2543 45.5317 31.746 45.5317 31.3335 45.2935" stroke="white" stroke-linecap="round"/>
</g>
<g filter="url(#filter8_d_2117_46105)">
<mask id="path-49-outside-3_2117_46105" maskUnits="userSpaceOnUse" x="22" y="27.8037" width="25" height="14" fill="black">
<rect fill="white" x="22" y="27.8037" width="25" height="14"/>
<path fill-rule="evenodd" clip-rule="evenodd" d="M29.2452 31.111L30 29.8037H42L45 34.9999H36.1111L32 39.111L27.8889 34.9999H27L27.3254 34.4363L24 31.111H29.2452Z"/>
</mask>
<path fill-rule="evenodd" clip-rule="evenodd" d="M29.2452 31.111L30 29.8037H42L45 34.9999H36.1111L32 39.111L27.8889 34.9999H27L27.3254 34.4363L24 31.111H29.2452Z" fill="white"/>
<path d="M30 29.8037V27.8037C29.2855 27.8037 28.6252 28.1849 28.268 28.8037L30 29.8037ZM29.2452 31.111V33.111C29.9598 33.111 30.62 32.7298 30.9773 32.111L29.2452 31.111ZM42 29.8037L43.7321 28.8037C43.3748 28.1849 42.7145 27.8037 42 27.8037V29.8037ZM45 34.9999V36.9999C45.7145 36.9999 46.3748 36.6187 46.7321 35.9999C47.0893 35.3811 47.0893 34.6187 46.7321 33.9999L45 34.9999ZM36.1111 34.9999V32.9999C35.5807 32.9999 35.072 33.2106 34.6969 33.5856L36.1111 34.9999ZM32 39.111L30.5858 40.5252C31.3668 41.3063 32.6332 41.3063 33.4142 40.5252L32 39.111ZM27.8889 34.9999L29.3031 33.5856C28.928 33.2106 28.4193 32.9999 27.8889 32.9999V34.9999ZM27 34.9999L25.268 33.9999C24.9107 34.6187 24.9107 35.3811 25.268 35.9999C25.6252 36.6187 26.2855 36.9999 27 36.9999V34.9999ZM27.3254 34.4363L29.0574 35.4363C29.51 34.6524 29.3796 33.6622 28.7396 33.0221L27.3254 34.4363ZM24 31.111V29.111C23.1911 29.111 22.4618 29.5983 22.1522 30.3456C21.8427 31.093 22.0138 31.9532 22.5858 32.5252L24 31.111ZM28.268 28.8037L27.5132 30.111L30.9773 32.111L31.7321 30.8037L28.268 28.8037ZM42 27.8037H30V31.8037H42V27.8037ZM46.7321 33.9999L43.7321 28.8037L40.268 30.8037L43.268 35.9999L46.7321 33.9999ZM36.1111 36.9999H45V32.9999H36.1111V36.9999ZM34.6969 33.5856L30.5858 37.6968L33.4142 40.5252L37.5253 36.4141L34.6969 33.5856ZM33.4142 37.6968L29.3031 33.5856L26.4747 36.4141L30.5858 40.5252L33.4142 37.6968ZM27 36.9999H27.8889V32.9999H27V36.9999ZM25.5933 33.4363L25.268 33.9999L28.7321 35.9999L29.0574 35.4363L25.5933 33.4363ZM28.7396 33.0221L25.4142 29.6968L22.5858 32.5252L25.9111 35.8506L28.7396 33.0221ZM24 33.111H29.2452V29.111H24V33.111Z" fill="white" mask="url(#path-49-outside-3_2117_46105)"/>
</g>
<path fill-rule="evenodd" clip-rule="evenodd" d="M32 39.1111L40 31.1111H24L32 39.1111Z" fill="url(#paint30_linear_2117_46105)"/>
<path fill-rule="evenodd" clip-rule="evenodd" d="M32.0002 39.1111L29.3335 31.1111H34.6668L32.0002 39.1111Z" fill="url(#paint31_linear_2117_46105)"/>
<path d="M30 29.8037L27 34.9999H45L42 29.8037H30Z" fill="url(#paint32_linear_2117_46105)"/>
<path d="M30 29.8037L33 34.9999H27L30 29.8037Z" fill="url(#paint33_linear_2117_46105)"/>
<path d="M36 29.8037L39 34.9999H33L36 29.8037Z" fill="url(#paint34_linear_2117_46105)"/>
<path d="M42 29.8037L45 34.9999H39L42 29.8037Z" fill="url(#paint35_linear_2117_46105)"/>
<g filter="url(#filter9_d_2117_46105)">
<path fill-rule="evenodd" clip-rule="evenodd" d="M41.6989 26.471L41.2372 26.289C40.9549 26.1776 40.8163 25.8585 40.9276 25.5761C40.9835 25.4345 41.0956 25.3224 41.2372 25.2665L41.6989 25.0845C42.2312 24.8745 42.6526 24.4531 42.8626 23.9208L43.0446 23.4591C43.156 23.1768 43.4751 23.0382 43.7574 23.1496C43.8991 23.2054 44.0112 23.3175 44.067 23.4591L44.2491 23.9208C44.4591 24.4531 44.8805 24.8745 45.4128 25.0845L45.8744 25.2665C46.1568 25.3779 46.2954 25.697 46.184 25.9794C46.1282 26.121 46.0161 26.2331 45.8744 26.289L45.4128 26.471C44.8805 26.681 44.4591 27.1024 44.2491 27.6347L44.067 28.0964C43.9557 28.3787 43.6365 28.5173 43.3542 28.4059C43.2126 28.3501 43.1005 28.238 43.0446 28.0964L42.8626 27.6347C42.6526 27.1024 42.2312 26.681 41.6989 26.471Z" fill="white"/>
</g>
<g filter="url(#filter10_d_2117_46105)">
<path fill-rule="evenodd" clip-rule="evenodd" d="M23.6511 40.4621L23.3434 40.3408C23.1551 40.2665 23.0627 40.0538 23.137 39.8655C23.1742 39.7711 23.249 39.6964 23.3434 39.6591L23.6511 39.5378C24.006 39.3978 24.287 39.1169 24.4269 38.762L24.5483 38.4542C24.6225 38.266 24.8353 38.1736 25.0235 38.2478C25.1179 38.2851 25.1927 38.3598 25.2299 38.4542L25.3513 38.762C25.4913 39.1169 25.7722 39.3978 26.1271 39.5378L26.4348 39.6591C26.6231 39.7334 26.7155 39.9461 26.6412 40.1344C26.604 40.2288 26.5293 40.3035 26.4348 40.3408L26.1271 40.4621C25.7722 40.6021 25.4913 40.883 25.3513 41.2379L25.2299 41.5457C25.1557 41.7339 24.9429 41.8263 24.7547 41.7521C24.6603 41.7148 24.5855 41.6401 24.5483 41.5457L24.4269 41.2379C24.287 40.883 24.006 40.6021 23.6511 40.4621Z" fill="white"/>
</g>
<g filter="url(#filter11_d_2117_46105)">
<path fill-rule="evenodd" clip-rule="evenodd" d="M18.4526 27.6889L18.0679 27.5371C17.8326 27.4444 17.7171 27.1784 17.8099 26.9431C17.8564 26.8251 17.9499 26.7317 18.0679 26.6851L18.4526 26.5334C18.8962 26.3584 19.2474 26.0073 19.4223 25.5637L19.574 25.179C19.6668 24.9437 19.9328 24.8282 20.1681 24.921C20.2861 24.9675 20.3795 25.0609 20.4261 25.179L20.5778 25.5637C20.7527 26.0073 21.1039 26.3584 21.5475 26.5334L21.9322 26.6851C22.1675 26.7779 22.283 27.0439 22.1902 27.2792C22.1437 27.3972 22.0502 27.4906 21.9322 27.5371L21.5475 27.6889C21.1039 27.8638 20.7527 28.215 20.5778 28.6586L20.4261 29.0433C20.3333 29.2786 20.0673 29.3941 19.832 29.3013C19.714 29.2548 19.6206 29.1613 19.574 29.0433L19.4223 28.6586C19.2474 28.215 18.8962 27.8638 18.4526 27.6889Z" fill="white"/>
</g>
<g filter="url(#filter12_d_2117_46105)">
<path fill-rule="evenodd" clip-rule="evenodd" d="M41.294 40.7911L41.0632 40.7C40.922 40.6443 40.8527 40.4848 40.9084 40.3436C40.9363 40.2728 40.9924 40.2167 41.0632 40.1888L41.294 40.0978C41.5602 39.9928 41.7709 39.7821 41.8759 39.5159L41.9669 39.2851C42.0226 39.1439 42.1821 39.0746 42.3233 39.1303C42.3941 39.1582 42.4502 39.2143 42.4781 39.2851L42.5691 39.5159C42.6741 39.7821 42.8848 39.9928 43.151 40.0978L43.3818 40.1888C43.523 40.2445 43.5923 40.4041 43.5366 40.5452C43.5087 40.616 43.4526 40.6721 43.3818 40.7L43.151 40.7911C42.8848 40.896 42.6741 41.1067 42.5691 41.3729L42.4781 41.6037C42.4224 41.7449 42.2628 41.8142 42.1217 41.7585C42.0509 41.7306 41.9948 41.6745 41.9669 41.6037L41.8759 41.3729C41.7709 41.1067 41.5602 40.896 41.294 40.7911Z" fill="white"/>
</g>
<g filter="url(#filter13_d_2117_46105)">
<path fill-rule="evenodd" clip-rule="evenodd" d="M37.6034 31.3421L37.4495 31.2815C37.3554 31.2443 37.3092 31.138 37.3463 31.0439C37.3649 30.9966 37.4023 30.9593 37.4495 30.9407L37.6034 30.88C37.7808 30.81 37.9213 30.6695 37.9913 30.4921L38.052 30.3382C38.0891 30.2441 38.1955 30.1979 38.2896 30.235C38.3368 30.2536 38.3742 30.291 38.3928 30.3382L38.4535 30.4921C38.5235 30.6695 38.6639 30.81 38.8414 30.88L38.9953 30.9407C39.0894 30.9778 39.1356 31.0842 39.0985 31.1783C39.0798 31.2255 39.0425 31.2628 38.9953 31.2815L38.8414 31.3421C38.6639 31.4121 38.5235 31.5526 38.4535 31.73L38.3928 31.8839C38.3557 31.978 38.2493 32.0242 38.1552 31.9871C38.108 31.9685 38.0706 31.9311 38.052 31.8839L37.9913 31.73C37.9213 31.5526 37.7808 31.4121 37.6034 31.3421Z" fill="white"/>
</g>
<path d="M18.528 83V73.48H20.138V83H18.528ZM15.336 74.67V73.2H23.33V74.67H15.336ZM25.8656 83.14C25.2123 83.14 24.6196 82.986 24.0876 82.678C23.5556 82.3607 23.131 81.936 22.8136 81.404C22.5056 80.872 22.3516 80.2793 22.3516 79.626C22.3516 78.9727 22.5056 78.3847 22.8136 77.862C23.131 77.3393 23.5556 76.924 24.0876 76.616C24.6196 76.2987 25.2123 76.14 25.8656 76.14C26.5283 76.14 27.1256 76.294 27.6576 76.602C28.1896 76.91 28.6096 77.33 28.9176 77.862C29.235 78.3847 29.3936 78.9727 29.3936 79.626C29.3936 80.2793 29.235 80.872 28.9176 81.404C28.6096 81.936 28.1896 82.3607 27.6576 82.678C27.1256 82.986 26.5283 83.14 25.8656 83.14ZM25.8656 81.656C26.2483 81.656 26.5843 81.572 26.8736 81.404C27.1723 81.2267 27.401 80.984 27.5596 80.676C27.7276 80.368 27.8116 80.018 27.8116 79.626C27.8116 79.234 27.7276 78.8887 27.5596 78.59C27.3916 78.2913 27.163 78.058 26.8736 77.89C26.5843 77.7127 26.2483 77.624 25.8656 77.624C25.4923 77.624 25.1563 77.7127 24.8576 77.89C24.5683 78.058 24.3396 78.2913 24.1716 78.59C24.013 78.8887 23.9336 79.234 23.9336 79.626C23.9336 80.018 24.013 80.368 24.1716 80.676C24.3396 80.984 24.5683 81.2267 24.8576 81.404C25.1563 81.572 25.4923 81.656 25.8656 81.656ZM34.2723 83.14C33.759 83.14 33.3016 83.0327 32.9003 82.818C32.499 82.594 32.1816 82.2907 31.9483 81.908C31.7243 81.5253 31.6123 81.0913 31.6123 80.606V78.674C31.6123 78.1887 31.729 77.7547 31.9623 77.372C32.1956 76.9893 32.513 76.6907 32.9143 76.476C33.3156 76.252 33.7683 76.14 34.2723 76.14C34.879 76.14 35.425 76.2987 35.9103 76.616C36.405 76.924 36.7923 77.344 37.0723 77.876C37.3616 78.3987 37.5063 78.9913 37.5063 79.654C37.5063 80.3073 37.3616 80.9 37.0723 81.432C36.7923 81.9547 36.405 82.37 35.9103 82.678C35.425 82.986 34.879 83.14 34.2723 83.14ZM30.6743 85.8V76.28H32.2143V78.086L31.9483 79.724L32.2143 81.348V85.8H30.6743ZM34.0203 81.684C34.3936 81.684 34.7203 81.6 35.0003 81.432C35.2896 81.2547 35.5136 81.012 35.6723 80.704C35.8403 80.396 35.9243 80.0413 35.9243 79.64C35.9243 79.2387 35.8403 78.884 35.6723 78.576C35.5136 78.268 35.2896 78.03 35.0003 77.862C34.7203 77.6847 34.3936 77.596 34.0203 77.596C33.647 77.596 33.3156 77.6847 33.0263 77.862C32.737 78.03 32.513 78.268 32.3543 78.576C32.1956 78.884 32.1163 79.2387 32.1163 79.64C32.1163 80.0413 32.1956 80.396 32.3543 80.704C32.513 81.012 32.737 81.2547 33.0263 81.432C33.3156 81.6 33.647 81.684 34.0203 81.684ZM44.1881 83.14C43.5348 83.14 42.9421 83.0233 42.4101 82.79C41.8875 82.5473 41.4441 82.1973 41.0801 81.74L42.1721 80.648C42.3681 80.9467 42.6435 81.1847 42.9981 81.362C43.3528 81.5393 43.7401 81.628 44.1601 81.628C44.5615 81.628 44.9068 81.5533 45.1961 81.404C45.4855 81.2547 45.7095 81.0447 45.8681 80.774C46.0361 80.5033 46.1201 80.1907 46.1201 79.836C46.1201 79.4627 46.0361 79.1453 45.8681 78.884C45.7095 78.6227 45.4761 78.422 45.1681 78.282C44.8695 78.1327 44.5055 78.058 44.0761 78.058C43.9081 78.058 43.7355 78.072 43.5581 78.1C43.3808 78.1187 43.2221 78.1513 43.0821 78.198L43.7961 77.274C43.9921 77.1993 44.1975 77.1387 44.4121 77.092C44.6361 77.036 44.8508 77.008 45.0561 77.008C45.5601 77.008 46.0128 77.1293 46.4141 77.372C46.8248 77.6147 47.1468 77.9553 47.3801 78.394C47.6228 78.8233 47.7441 79.332 47.7441 79.92C47.7441 80.5547 47.5948 81.1147 47.2961 81.6C46.9975 82.0853 46.5821 82.4633 46.0501 82.734C45.5181 83.0047 44.8975 83.14 44.1881 83.14ZM43.0821 78.198V77.246L45.7001 74.194L47.6321 74.152L44.9021 77.288L43.0821 78.198ZM41.5701 74.642V73.2H47.6321V74.152L46.2461 74.642H41.5701Z" fill="#646464"/>
<defs>
<filter id="filter0_d_2117_46105" x="15.7778" y="29.3333" width="18.2222" height="31.8276" filterUnits="userSpaceOnUse" color-interpolation-filters="sRGB">
<feFlood flood-opacity="0" result="BackgroundImageFix"/>
<feColorMatrix in="SourceAlpha" type="matrix" values="0 0 0 0 0 0 0 0 0 0 0 0 0 0 0 0 0 0 127 0" result="hardAlpha"/>
<feOffset dy="2"/>
<feGaussianBlur stdDeviation="1"/>
<feColorMatrix type="matrix" values="0 0 0 0 0.61352 0 0 0 0 0.61352 0 0 0 0 0.61352 0 0 0 0.2 0"/>
<feBlend mode="darken" in2="BackgroundImageFix" result="effect1_dropShadow_2117_46105"/>
<feBlend mode="normal" in="SourceGraphic" in2="effect1_dropShadow_2117_46105" result="shape"/>
</filter>
<filter id="filter1_d_2117_46105" x="19.3335" y="32" width="18.2222" height="31.8276" filterUnits="userSpaceOnUse" color-interpolation-filters="sRGB">
<feFlood flood-opacity="0" result="BackgroundImageFix"/>
<feColorMatrix in="SourceAlpha" type="matrix" values="0 0 0 0 0 0 0 0 0 0 0 0 0 0 0 0 0 0 127 0" result="hardAlpha"/>
<feOffset dy="2"/>
<feGaussianBlur stdDeviation="1"/>
<feColorMatrix type="matrix" values="0 0 0 0 0.61352 0 0 0 0 0.61352 0 0 0 0 0.61352 0 0 0 0.2 0"/>
<feBlend mode="darken" in2="BackgroundImageFix" result="effect1_dropShadow_2117_46105"/>
<feBlend mode="normal" in="SourceGraphic" in2="effect1_dropShadow_2117_46105" result="shape"/>
</filter>
<filter id="filter2_d_2117_46105" x="30" y="29.3333" width="18.2222" height="31.8276" filterUnits="userSpaceOnUse" color-interpolation-filters="sRGB">
<feFlood flood-opacity="0" result="BackgroundImageFix"/>
<feColorMatrix in="SourceAlpha" type="matrix" values="0 0 0 0 0 0 0 0 0 0 0 0 0 0 0 0 0 0 127 0" result="hardAlpha"/>
<feOffset dy="2"/>
<feGaussianBlur stdDeviation="1"/>
<feColorMatrix type="matrix" values="0 0 0 0 0.61352 0 0 0 0 0.61352 0 0 0 0 0.61352 0 0 0 0.2 0"/>
<feBlend mode="darken" in2="BackgroundImageFix" result="effect1_dropShadow_2117_46105"/>
<feBlend mode="normal" in="SourceGraphic" in2="effect1_dropShadow_2117_46105" result="shape"/>
</filter>
<filter id="filter3_d_2117_46105" x="26.4443" y="32" width="18.2222" height="31.8276" filterUnits="userSpaceOnUse" color-interpolation-filters="sRGB">
<feFlood flood-opacity="0" result="BackgroundImageFix"/>
<feColorMatrix in="SourceAlpha" type="matrix" values="0 0 0 0 0 0 0 0 0 0 0 0 0 0 0 0 0 0 127 0" result="hardAlpha"/>
<feOffset dy="2"/>
<feGaussianBlur stdDeviation="1"/>
<feColorMatrix type="matrix" values="0 0 0 0 0.61352 0 0 0 0 0.61352 0 0 0 0 0.61352 0 0 0 0.2 0"/>
<feBlend mode="darken" in2="BackgroundImageFix" result="effect1_dropShadow_2117_46105"/>
<feBlend mode="normal" in="SourceGraphic" in2="effect1_dropShadow_2117_46105" result="shape"/>
</filter>
<filter id="filter4_d_2117_46105" x="22.8892" y="33.7776" width="18.2222" height="31.8276" filterUnits="userSpaceOnUse" color-interpolation-filters="sRGB">
<feFlood flood-opacity="0" result="BackgroundImageFix"/>
<feColorMatrix in="SourceAlpha" type="matrix" values="0 0 0 0 0 0 0 0 0 0 0 0 0 0 0 0 0 0 127 0" result="hardAlpha"/>
<feOffset dy="2"/>
<feGaussianBlur stdDeviation="1"/>
<feColorMatrix type="matrix" values="0 0 0 0 0.61352 0 0 0 0 0.61352 0 0 0 0 0.61352 0 0 0 0.2 0"/>
<feBlend mode="darken" in2="BackgroundImageFix" result="effect1_dropShadow_2117_46105"/>
<feBlend mode="normal" in="SourceGraphic" in2="effect1_dropShadow_2117_46105" result="shape"/>
</filter>
<filter id="filter5_i_2117_46105" x="16" y="40.1951" width="32" height="14.0989" filterUnits="userSpaceOnUse" color-interpolation-filters="sRGB">
<feFlood flood-opacity="0" result="BackgroundImageFix"/>
<feBlend mode="normal" in="SourceGraphic" in2="BackgroundImageFix" result="shape"/>
<feColorMatrix in="SourceAlpha" type="matrix" values="0 0 0 0 0 0 0 0 0 0 0 0 0 0 0 0 0 0 127 0" result="hardAlpha"/>
<feOffset dy="1"/>
<feGaussianBlur stdDeviation="0.5"/>
<feComposite in2="hardAlpha" operator="arithmetic" k2="-1" k3="1"/>
<feColorMatrix type="matrix" values="0 0 0 0 0.929412 0 0 0 0 0.568627 0 0 0 0 0 0 0 0 0.5 0"/>
<feBlend mode="normal" in2="shape" result="effect1_innerShadow_2117_46105"/>
</filter>
<filter id="filter6_di_2117_46105" x="14.5757" y="14.1556" width="34.8486" height="36.489" filterUnits="userSpaceOnUse" color-interpolation-filters="sRGB">
<feFlood flood-opacity="0" result="BackgroundImageFix"/>
<feColorMatrix in="SourceAlpha" type="matrix" values="0 0 0 0 0 0 0 0 0 0 0 0 0 0 0 0 0 0 127 0" result="hardAlpha"/>
<feOffset dy="0.4"/>
<feGaussianBlur stdDeviation="0.5"/>
<feColorMatrix type="matrix" values="0 0 0 0 1 0 0 0 0 0.909804 0 0 0 0 0.556863 0 0 0 0.4 0"/>
<feBlend mode="normal" in2="BackgroundImageFix" result="effect1_dropShadow_2117_46105"/>
<feBlend mode="normal" in="SourceGraphic" in2="effect1_dropShadow_2117_46105" result="shape"/>
<feColorMatrix in="SourceAlpha" type="matrix" values="0 0 0 0 0 0 0 0 0 0 0 0 0 0 0 0 0 0 127 0" result="hardAlpha"/>
<feOffset dy="1"/>
<feGaussianBlur stdDeviation="0.5"/>
<feComposite in2="hardAlpha" operator="arithmetic" k2="-1" k3="1"/>
<feColorMatrix type="matrix" values="0 0 0 0 0.31048 0 0 0 0 0.31048 0 0 0 0 0.279572 0 0 0 1 0"/>
<feBlend mode="normal" in2="shape" result="effect2_innerShadow_2117_46105"/>
</filter>
<filter id="filter7_d_2117_46105" x="16.6831" y="16.0872" width="30.6338" height="33.8257" filterUnits="userSpaceOnUse" color-interpolation-filters="sRGB">
<feFlood flood-opacity="0" result="BackgroundImageFix"/>
<feColorMatrix in="SourceAlpha" type="matrix" values="0 0 0 0 0 0 0 0 0 0 0 0 0 0 0 0 0 0 127 0" result="hardAlpha"/>
<feOffset dy="1"/>
<feGaussianBlur stdDeviation="1"/>
<feColorMatrix type="matrix" values="0 0 0 0 0.927721 0 0 0 0 0.665867 0 0 0 0 0.0535899 0 0 0 0.4 0"/>
<feBlend mode="normal" in2="BackgroundImageFix" result="effect1_dropShadow_2117_46105"/>
<feBlend mode="normal" in="SourceGraphic" in2="effect1_dropShadow_2117_46105" result="shape"/>
</filter>
<filter id="filter8_d_2117_46105" x="20" y="26.8037" width="29" height="17.3074" filterUnits="userSpaceOnUse" color-interpolation-filters="sRGB">
<feFlood flood-opacity="0" result="BackgroundImageFix"/>
<feColorMatrix in="SourceAlpha" type="matrix" values="0 0 0 0 0 0 0 0 0 0 0 0 0 0 0 0 0 0 127 0" result="hardAlpha"/>
<feOffset dy="1"/>
<feGaussianBlur stdDeviation="1"/>
<feColorMatrix type="matrix" values="0 0 0 0 0.996078 0 0 0 0 0.733333 0 0 0 0 0.105882 0 0 0 1 0"/>
<feBlend mode="normal" in2="BackgroundImageFix" result="effect1_dropShadow_2117_46105"/>
<feBlend mode="normal" in="SourceGraphic" in2="effect1_dropShadow_2117_46105" result="shape"/>
</filter>
<filter id="filter9_d_2117_46105" x="38.8892" y="21.1111" width="9.3335" height="9.33325" filterUnits="userSpaceOnUse" color-interpolation-filters="sRGB">
<feFlood flood-opacity="0" result="BackgroundImageFix"/>
<feColorMatrix in="SourceAlpha" type="matrix" values="0 0 0 0 0 0 0 0 0 0 0 0 0 0 0 0 0 0 127 0" result="hardAlpha"/>
<feOffset/>
<feGaussianBlur stdDeviation="1"/>
<feColorMatrix type="matrix" values="0 0 0 0 1 0 0 0 0 0.94902 0 0 0 0 0.305882 0 0 0 1 0"/>
<feBlend mode="normal" in2="BackgroundImageFix" result="effect1_dropShadow_2117_46105"/>
<feBlend mode="normal" in="SourceGraphic" in2="effect1_dropShadow_2117_46105" result="shape"/>
</filter>
<filter id="filter10_d_2117_46105" x="21.1113" y="36.2222" width="7.55566" height="7.55566" filterUnits="userSpaceOnUse" color-interpolation-filters="sRGB">
<feFlood flood-opacity="0" result="BackgroundImageFix"/>
<feColorMatrix in="SourceAlpha" type="matrix" values="0 0 0 0 0 0 0 0 0 0 0 0 0 0 0 0 0 0 127 0" result="hardAlpha"/>
<feOffset/>
<feGaussianBlur stdDeviation="1"/>
<feColorMatrix type="matrix" values="0 0 0 0 1 0 0 0 0 0.94902 0 0 0 0 0.305882 0 0 0 1 0"/>
<feBlend mode="normal" in2="BackgroundImageFix" result="effect1_dropShadow_2117_46105"/>
<feBlend mode="normal" in="SourceGraphic" in2="effect1_dropShadow_2117_46105" result="shape"/>
</filter>
<filter id="filter11_d_2117_46105" x="15.7778" y="22.8889" width="8.44434" height="8.44434" filterUnits="userSpaceOnUse" color-interpolation-filters="sRGB">
<feFlood flood-opacity="0" result="BackgroundImageFix"/>
<feColorMatrix in="SourceAlpha" type="matrix" values="0 0 0 0 0 0 0 0 0 0 0 0 0 0 0 0 0 0 127 0" result="hardAlpha"/>
<feOffset/>
<feGaussianBlur stdDeviation="1"/>
<feColorMatrix type="matrix" values="0 0 0 0 1 0 0 0 0 0.94902 0 0 0 0 0.305882 0 0 0 1 0"/>
<feBlend mode="normal" in2="BackgroundImageFix" result="effect1_dropShadow_2117_46105"/>
<feBlend mode="normal" in="SourceGraphic" in2="effect1_dropShadow_2117_46105" result="shape"/>
</filter>
<filter id="filter12_d_2117_46105" x="38.8892" y="37.1111" width="6.6665" height="6.66675" filterUnits="userSpaceOnUse" color-interpolation-filters="sRGB">
<feFlood flood-opacity="0" result="BackgroundImageFix"/>
<feColorMatrix in="SourceAlpha" type="matrix" values="0 0 0 0 0 0 0 0 0 0 0 0 0 0 0 0 0 0 127 0" result="hardAlpha"/>
<feOffset/>
<feGaussianBlur stdDeviation="1"/>
<feColorMatrix type="matrix" values="0 0 0 0 1 0 0 0 0 0.94902 0 0 0 0 0.305882 0 0 0 1 0"/>
<feBlend mode="normal" in2="BackgroundImageFix" result="effect1_dropShadow_2117_46105"/>
<feBlend mode="normal" in="SourceGraphic" in2="effect1_dropShadow_2117_46105" result="shape"/>
</filter>
<filter id="filter13_d_2117_46105" x="35.3335" y="28.2222" width="5.77783" height="5.77783" filterUnits="userSpaceOnUse" color-interpolation-filters="sRGB">
<feFlood flood-opacity="0" result="BackgroundImageFix"/>
<feColorMatrix in="SourceAlpha" type="matrix" values="0 0 0 0 0 0 0 0 0 0 0 0 0 0 0 0 0 0 127 0" result="hardAlpha"/>
<feOffset/>
<feGaussianBlur stdDeviation="1"/>
<feColorMatrix type="matrix" values="0 0 0 0 1 0 0 0 0 0.94902 0 0 0 0 0.305882 0 0 0 1 0"/>
<feBlend mode="normal" in2="BackgroundImageFix" result="effect1_dropShadow_2117_46105"/>
<feBlend mode="normal" in="SourceGraphic" in2="effect1_dropShadow_2117_46105" result="shape"/>
</filter>
<linearGradient id="paint0_linear_2117_46105" x1="5.33741" y1="16.9656" x2="5.33741" y2="39.2212" gradientUnits="userSpaceOnUse">
<stop stop-color="#75756F"/>
<stop offset="1" stop-color="#3A342A"/>
</linearGradient>
<linearGradient id="paint1_linear_2117_46105" x1="12.4233" y1="30.2134" x2="12.4233" y2="39.2212" gradientUnits="userSpaceOnUse">
<stop stop-color="#FFDF6B"/>
<stop offset="1" stop-color="#F8A60A"/>
</linearGradient>
<linearGradient id="paint2_linear_2117_46105" x1="3.52617" y1="16.8693" x2="3.52617" y2="39.1873" gradientUnits="userSpaceOnUse">
<stop stop-color="#75756F"/>
<stop offset="1" stop-color="#3A342A"/>
</linearGradient>
<linearGradient id="paint3_linear_2117_46105" x1="10.6455" y1="25.7688" x2="10.6455" y2="34.7766" gradientUnits="userSpaceOnUse">
<stop stop-color="#FFDF6B"/>
<stop offset="1" stop-color="#F8A60A"/>
</linearGradient>
<linearGradient id="paint4_linear_2117_46105" x1="1.69552" y1="16.8389" x2="1.69552" y2="39.2556" gradientUnits="userSpaceOnUse">
<stop stop-color="#75756F"/>
<stop offset="1" stop-color="#3A342A"/>
</linearGradient>
<linearGradient id="paint5_linear_2117_46105" x1="8.86768" y1="21.3245" x2="8.86768" y2="30.3322" gradientUnits="userSpaceOnUse">
<stop stop-color="#FFDF6B"/>
<stop offset="1" stop-color="#F8A60A"/>
</linearGradient>
<linearGradient id="paint6_linear_2117_46105" x1="-0.0574642" y1="16.88" x2="-0.0574642" y2="39.2505" gradientUnits="userSpaceOnUse">
<stop stop-color="#75756F"/>
<stop offset="1" stop-color="#3A342A"/>
</linearGradient>
<linearGradient id="paint7_linear_2117_46105" x1="7.08995" y1="16.88" x2="7.08995" y2="25.8878" gradientUnits="userSpaceOnUse">
<stop stop-color="#FFDF6B"/>
<stop offset="1" stop-color="#F8A60A"/>
</linearGradient>
<linearGradient id="paint8_linear_2117_46105" x1="58.6631" y1="16.9656" x2="58.6631" y2="39.2212" gradientUnits="userSpaceOnUse">
<stop stop-color="#75756F"/>
<stop offset="1" stop-color="#3A342A"/>
</linearGradient>
<linearGradient id="paint9_linear_2117_46105" x1="51.5771" y1="30.2134" x2="51.5771" y2="39.2212" gradientUnits="userSpaceOnUse">
<stop stop-color="#FFDF6B"/>
<stop offset="1" stop-color="#F8A60A"/>
</linearGradient>
<linearGradient id="paint10_linear_2117_46105" x1="60.4743" y1="16.8695" x2="60.4743" y2="39.1875" gradientUnits="userSpaceOnUse">
<stop stop-color="#75756F"/>
<stop offset="1" stop-color="#3A342A"/>
</linearGradient>
<linearGradient id="paint11_linear_2117_46105" x1="53.355" y1="25.769" x2="53.355" y2="34.7768" gradientUnits="userSpaceOnUse">
<stop stop-color="#FFDF6B"/>
<stop offset="1" stop-color="#F8A60A"/>
</linearGradient>
<linearGradient id="paint12_linear_2117_46105" x1="62.305" y1="16.8389" x2="62.305" y2="39.2556" gradientUnits="userSpaceOnUse">
<stop stop-color="#75756F"/>
<stop offset="1" stop-color="#3A342A"/>
</linearGradient>
<linearGradient id="paint13_linear_2117_46105" x1="55.1328" y1="21.3245" x2="55.1328" y2="30.3322" gradientUnits="userSpaceOnUse">
<stop stop-color="#FFDF6B"/>
<stop offset="1" stop-color="#F8A60A"/>
</linearGradient>
<linearGradient id="paint14_linear_2117_46105" x1="64.0581" y1="16.8801" x2="64.0581" y2="39.2506" gradientUnits="userSpaceOnUse">
<stop stop-color="#75756F"/>
<stop offset="1" stop-color="#3A342A"/>
</linearGradient>
<linearGradient id="paint15_linear_2117_46105" x1="56.9106" y1="16.8801" x2="56.9106" y2="25.8879" gradientUnits="userSpaceOnUse">
<stop stop-color="#FFDF6B"/>
<stop offset="1" stop-color="#F8A60A"/>
</linearGradient>
<linearGradient id="paint16_linear_2117_46105" x1="11.6934" y1="37.3335" x2="11.6934" y2="45.3135" gradientUnits="userSpaceOnUse">
<stop stop-color="#75756F"/>
<stop offset="1" stop-color="#3A342A"/>
</linearGradient>
<linearGradient id="paint17_linear_2117_46105" x1="11.6934" y1="37.3335" x2="11.6934" y2="45.3135" gradientUnits="userSpaceOnUse">
<stop stop-color="#FFDF6B"/>
<stop offset="1" stop-color="#F8A60A"/>
</linearGradient>
<linearGradient id="paint18_linear_2117_46105" x1="52.4443" y1="37.3335" x2="52.4443" y2="45.7779" gradientUnits="userSpaceOnUse">
<stop stop-color="#75756F"/>
<stop offset="1" stop-color="#3A342A"/>
</linearGradient>
<linearGradient id="paint19_linear_2117_46105" x1="52.4443" y1="37.3335" x2="52.4443" y2="45.7779" gradientUnits="userSpaceOnUse">
<stop stop-color="#FFDF6B"/>
<stop offset="1" stop-color="#F8A60A"/>
</linearGradient>
<linearGradient id="paint20_linear_2117_46105" x1="24" y1="9.77783" x2="24" y2="15.5444" gradientUnits="userSpaceOnUse">
<stop stop-color="#75756F"/>
<stop offset="1" stop-color="#3A342A"/>
</linearGradient>
<linearGradient id="paint21_linear_2117_46105" x1="24" y1="9.77783" x2="24" y2="15.5444" gradientUnits="userSpaceOnUse">
<stop stop-color="#FFDF6B"/>
<stop offset="1" stop-color="#F8A60A"/>
</linearGradient>
<linearGradient id="paint22_linear_2117_46105" x1="16" y1="40.1145" x2="16" y2="53.3972" gradientUnits="userSpaceOnUse">
<stop stop-color="#F39C05"/>
<stop offset="1" stop-color="#F59100"/>
</linearGradient>
<linearGradient id="paint23_linear_2117_46105" x1="16" y1="40.1145" x2="16" y2="53.3972" gradientUnits="userSpaceOnUse">
<stop stop-color="#FFBA45"/>
<stop offset="1" stop-color="#F59100"/>
</linearGradient>
<linearGradient id="paint24_linear_2117_46105" x1="17.7778" y1="10.3003" x2="17.7778" y2="23.1333" gradientUnits="userSpaceOnUse">
<stop stop-color="#75756F"/>
<stop offset="1" stop-color="#3A342A"/>
</linearGradient>
<linearGradient id="paint25_linear_2117_46105" x1="17.7778" y1="10.3003" x2="17.7778" y2="23.1333" gradientUnits="userSpaceOnUse">
<stop stop-color="#FFDF6B"/>
<stop offset="1" stop-color="#F8A60A"/>
</linearGradient>
<linearGradient id="paint26_linear_2117_46105" x1="35.5557" y1="10.3003" x2="35.5557" y2="23.1333" gradientUnits="userSpaceOnUse">
<stop stop-color="#75756F"/>
<stop offset="1" stop-color="#3A342A"/>
</linearGradient>
<linearGradient id="paint27_linear_2117_46105" x1="35.5557" y1="10.3003" x2="35.5557" y2="23.1333" gradientUnits="userSpaceOnUse">
<stop stop-color="#FFDF6B"/>
<stop offset="1" stop-color="#F8A60A"/>
</linearGradient>
<linearGradient id="paint28_linear_2117_46105" x1="11.5557" y1="11.5557" x2="11.5557" y2="52.4445" gradientUnits="userSpaceOnUse">
<stop stop-color="#FDE046"/>
<stop offset="1" stop-color="#F9B800"/>
</linearGradient>
<linearGradient id="paint29_linear_2117_46105" x1="17.7778" y1="17.7778" x2="17.7778" y2="46.2223" gradientUnits="userSpaceOnUse">
<stop stop-color="#FFF550"/>
<stop offset="1" stop-color="#FFD541"/>
</linearGradient>
<linearGradient id="paint30_linear_2117_46105" x1="32" y1="39.1111" x2="32" y2="31.1111" gradientUnits="userSpaceOnUse">
<stop stop-color="#878787"/>
<stop offset="1" stop-color="#1F1F1F"/>
</linearGradient>
<linearGradient id="paint31_linear_2117_46105" x1="34.6668" y1="39.1111" x2="34.6668" y2="31.1111" gradientUnits="userSpaceOnUse">
<stop stop-color="#878787"/>
<stop offset="1" stop-color="#4E4E4E"/>
</linearGradient>
<linearGradient id="paint32_linear_2117_46105" x1="45" y1="34.9999" x2="45" y2="29.8037" gradientUnits="userSpaceOnUse">
<stop stop-color="white"/>
<stop offset="1" stop-color="#A8A8A8"/>
</linearGradient>
<linearGradient id="paint33_linear_2117_46105" x1="29" y1="34.9999" x2="29" y2="30.6697" gradientUnits="userSpaceOnUse">
<stop stop-color="#818181"/>
<stop offset="1" stop-color="#A0A0A0"/>
</linearGradient>
<linearGradient id="paint34_linear_2117_46105" x1="35" y1="34.9999" x2="35" y2="30.6697" gradientUnits="userSpaceOnUse">
<stop stop-color="#818181"/>
<stop offset="1" stop-color="#A0A0A0"/>
</linearGradient>
<linearGradient id="paint35_linear_2117_46105" x1="41" y1="34.9999" x2="41" y2="30.6697" gradientUnits="userSpaceOnUse">
<stop stop-color="#818181"/>
<stop offset="1" stop-color="#A0A0A0"/>
</linearGradient>
</defs>
</svg>
